  0
SECTION
  2
HEADER
  9
$ACADVER
  1
AC1014
  9
$HANDSEED
  5
FFFF
  9
$MEASUREMENT
 70
     1
  0
ENDSEC
  0
SECTION
  2
TABLES
  0
TABLE
  2
VPORT
  5
8
330
0
100
AcDbSymbolTable
 70
     4
  0
VPORT
  5
2E
330
8
100
AcDbSymbolTableRecord
100
AcDbViewportTableRecord
  2
*ACTIVE
 70
     0
 10
0.0
 20
0.0
 11
1.0
 21
1.0
 12
210.0
 22
148.5
 13
0.0
 23
0.0
 14
10.0
 24
10.0
 15
10.0
 25
10.0
 16
0.0
 26
0.0
 36
1.0
 17
0.0
 27
0.0
 37
0.0
 40
341.0
 41
1.24
 42
50.0
 43
0.0
 44
0.0
 50
0.0
 51
0.0
 71
     0
 72
   100
 73
     1
 74
     3
 75
     0
 76
     0
 77
     0
 78
     0
  0
ENDTAB
  0
TABLE
  2
LTYPE
  5
5
330
0
100
AcDbSymbolTable
 70
     1
  0
LTYPE
  5
14
330
5
100
AcDbSymbolTableRecord
100
AcDbLinetypeTableRecord
  2
BYBLOCK
 70
     0
  3

 72
    65
 73
     0
 40
0.0
  0
LTYPE
  5
15
330
5
100
AcDbSymbolTableRecord
100
AcDbLinetypeTableRecord
  2
BYLAYER
 70
     0
  3

 72
    65
 73
     0
 40
0.0
  0
LTYPE
  5
16
330
5
100
AcDbSymbolTableRecord
100
AcDbLinetypeTableRecord
  2
CONTINUOUS
 70
     0
  3
Solid line
 72
    65
 73
     0
 40
0.0
  0
ENDTAB
  0
TABLE
  2
LAYER
  5
2
100
AcDbSymbolTable
 70
2
  0
LAYER
  5
50
100
AcDbSymbolTableRecord
100
AcDbLayerTableRecord
  2
0
 70
0
  6
CONTINUOUS
  0
LAYER
  5
51
100
AcDbSymbolTableRecord
100
AcDbLayerTableRecord
  2
Layer_1
 70
0
  6
CONTINUOUS
  0
ENDTAB
  0
TABLE
  2
STYLE
  5
3
330
0
100
AcDbSymbolTable
 70
     1
  0
STYLE
  5
11
330
3
100
AcDbSymbolTableRecord
100
AcDbTextStyleTableRecord
  2
STANDARD
 70
     0
 40
0.0
 41
1.0
 50
0.0
 71
     0
 42
2.5
  3
txt
  4

  0
ENDTAB
  0
TABLE
  2
VIEW
  5
6
330
0
100
AcDbSymbolTable
 70
     0
  0
ENDTAB
  0
TABLE
  2
UCS
  5
7
330
0
100
AcDbSymbolTable
 70
     0
  0
ENDTAB
  0
TABLE
  2
APPID
  5
9
330
0
100
AcDbSymbolTable
 70
     2
  0
APPID
  5
12
330
9
100
AcDbSymbolTableRecord
100
AcDbRegAppTableRecord
  2
ACAD
 70
     0
  0
ENDTAB
  0
TABLE
  2
DIMSTYLE
  5
A
330
0
100
AcDbSymbolTable
 70
     1
  0
DIMSTYLE
105
27
330
A
100
AcDbSymbolTableRecord
100
AcDbDimStyleTableRecord
  2
ISO-25
 70
     0
  3

  4

  5

  6

  7

 40
1.0
 41
2.5
 42
0.625
 43
3.75
 44
1.25
 45
0.0
 46
0.0
 47
0.0
 48
0.0
140
2.5
141
2.5
142
0.0
143
0.03937007874016
144
1.0
145
0.0
146
1.0
147
0.625
 71
     0
 72
     0
 73
     0
 74
     0
 75
     0
 76
     0
 77
     1
 78
     8
170
     0
171
     3
172
     1
173
     0
174
     0
175
     0
176
     0
177
     0
178
     0
270
     2
271
     2
272
     2
273
     2
274
     3
340
11
275
     0
280
     0
281
     0
282
     0
283
     0
284
     8
285
     0
286
     0
287
     3
288
     0
  0
ENDTAB
  0
TABLE
  2
BLOCK_RECORD
  5
1
330
0
100
AcDbSymbolTable
 70
     1
  0
BLOCK_RECORD
  5
1F
330
1
100
AcDbSymbolTableRecord
100
AcDbBlockTableRecord
  2
*MODEL_SPACE
  0
BLOCK_RECORD
  5
1B
330
1
100
AcDbSymbolTableRecord
100
AcDbBlockTableRecord
  2
*PAPER_SPACE
  0
ENDTAB
  0
ENDSEC
  0
SECTION
  2
BLOCKS
  0
BLOCK
  5
20
330
1F
100
AcDbEntity
  8
0
100
AcDbBlockBegin
  2
*MODEL_SPACE
 70
     0
 10
0.0
 20
0.0
 30
0.0
  3
*MODEL_SPACE
  1

  0
ENDBLK
  5
21
330
1F
100
AcDbEntity
  8
0
100
AcDbBlockEnd
  0
BLOCK
  5
1C
330
1B
100
AcDbEntity
 67
     1
  8
0
100
AcDbBlockBegin
  2
*PAPER_SPACE
  1

  0
ENDBLK
  5
1D
330
1B
100
AcDbEntity
 67
     1
  8
0
100
AcDbBlockEnd
  0
ENDSEC
  0
SECTION
  2
ENTITIES
  0
SPLINE
  5
100
100
AcDbEntity
  8
Layer_1
 62
7
100
AcDbSpline
 70
8
 71
3
 72
8
 73
4
 74
0
 40
0
 40
0
 40
0
 40
0
 40
1
 40
1
 40
1
 40
1
 10
0.028712
 20
0.073310
 30
0.0
 10
0.027530
 20
0.071262
 30
0.0
 10
0.027530
 20
0.068738
 30
0.0
 10
0.028712
 20
0.066690
 30
0.0
  0
SPLINE
  5
101
100
AcDbEntity
  8
Layer_1
 62
7
100
AcDbSpline
 70
8
 71
3
 72
8
 73
4
 74
0
 40
0
 40
0
 40
0
 40
0
 40
1
 40
1
 40
1
 40
1
 10
0.028712
 20
0.066690
 30
0.0
 10
0.029895
 20
0.064643
 30
0.0
 10
0.032080
 20
0.063381
 30
0.0
 10
0.034444
 20
0.063381
 30
0.0
  0
SPLINE
  5
102
100
AcDbEntity
  8
Layer_1
 62
7
100
AcDbSpline
 70
8
 71
3
 72
8
 73
4
 74
0
 40
0
 40
0
 40
0
 40
0
 40
1
 40
1
 40
1
 40
1
 10
0.034444
 20
0.063381
 30
0.0
 10
0.036220
 20
0.063381
 30
0.0
 10
0.037922
 20
0.062653
 30
0.0
 10
0.039177
 20
0.061397
 30
0.0
  0
SPLINE
  5
103
100
AcDbEntity
  8
Layer_1
 62
7
100
AcDbSpline
 70
8
 71
3
 72
8
 73
4
 74
0
 40
0
 40
0
 40
0
 40
0
 40
1
 40
1
 40
1
 40
1
 10
0.039177
 20
0.061397
 30
0.0
 10
0.040433
 20
0.060142
 30
0.0
 10
0.041167
 20
0.058442
 30
0.0
 10
0.041167
 20
0.056667
 30
0.0
  0
SPLINE
  5
104
100
AcDbEntity
  8
Layer_1
 62
7
100
AcDbSpline
 70
8
 71
3
 72
8
 73
4
 74
0
 40
0
 40
0
 40
0
 40
0
 40
1
 40
1
 40
1
 40
1
 10
0.041165
 20
0.053333
 30
0.0
 10
0.041165
 20
0.050573
 30
0.0
 10
0.042531
 20
0.048023
 30
0.0
 10
0.044749
 20
0.046644
 30
0.0
  0
SPLINE
  5
105
100
AcDbEntity
  8
Layer_1
 62
7
100
AcDbSpline
 70
8
 71
3
 72
8
 73
4
 74
0
 40
0
 40
0
 40
0
 40
0
 40
1
 40
1
 40
1
 40
1
 10
0.044749
 20
0.046644
 30
0.0
 10
0.046967
 20
0.045264
 30
0.0
 10
0.049700
 20
0.045264
 30
0.0
 10
0.051918
 20
0.046644
 30
0.0
  0
SPLINE
  5
106
100
AcDbEntity
  8
Layer_1
 62
7
100
AcDbSpline
 70
8
 71
3
 72
8
 73
4
 74
0
 40
0
 40
0
 40
0
 40
0
 40
1
 40
1
 40
1
 40
1
 10
0.051918
 20
0.046644
 30
0.0
 10
0.054136
 20
0.048023
 30
0.0
 10
0.055502
 20
0.050573
 30
0.0
 10
0.055502
 20
0.053333
 30
0.0
  0
LWPOLYLINE
  5
107
100
AcDbEntity
  8
Layer_1
 62
7
100
AcDbPolyline
 90
2
 70
1
 10
0.041167
 20
0.056667
 30
0.0
 10
0.041165
 20
0.053333
 30
0.0
  0
SPLINE
  5
108
100
AcDbEntity
  8
Layer_1
 62
7
100
AcDbSpline
 70
8
 71
3
 72
8
 73
4
 74
0
 40
0
 40
0
 40
0
 40
0
 40
1
 40
1
 40
1
 40
1
 10
0.055502
 20
0.056667
 30
0.0
 10
0.055502
 20
0.058442
 30
0.0
 10
0.056228
 20
0.060140
 30
0.0
 10
0.057483
 20
0.061396
 30
0.0
  0
SPLINE
  5
109
100
AcDbEntity
  8
Layer_1
 62
7
100
AcDbSpline
 70
8
 71
3
 72
8
 73
4
 74
0
 40
0
 40
0
 40
0
 40
0
 40
1
 40
1
 40
1
 40
1
 10
0.057483
 20
0.061396
 30
0.0
 10
0.058737
 20
0.062651
 30
0.0
 10
0.060448
 20
0.063381
 30
0.0
 10
0.062222
 20
0.063381
 30
0.0
  0
SPLINE
  5
10a
100
AcDbEntity
  8
Layer_1
 62
7
100
AcDbSpline
 70
8
 71
3
 72
8
 73
4
 74
0
 40
0
 40
0
 40
0
 40
0
 40
1
 40
1
 40
1
 40
1
 10
0.062222
 20
0.063381
 30
0.0
 10
0.064587
 20
0.063381
 30
0.0
 10
0.066772
 20
0.064643
 30
0.0
 10
0.067954
 20
0.066690
 30
0.0
  0
SPLINE
  5
10b
100
AcDbEntity
  8
Layer_1
 62
7
100
AcDbSpline
 70
8
 71
3
 72
8
 73
4
 74
0
 40
0
 40
0
 40
0
 40
0
 40
1
 40
1
 40
1
 40
1
 10
0.067954
 20
0.066690
 30
0.0
 10
0.069137
 20
0.068738
 30
0.0
 10
0.069137
 20
0.071262
 30
0.0
 10
0.067954
 20
0.073310
 30
0.0
  0
SPLINE
  5
10c
100
AcDbEntity
  8
Layer_1
 62
7
100
AcDbSpline
 70
8
 71
3
 72
8
 73
4
 74
0
 40
0
 40
0
 40
0
 40
0
 40
1
 40
1
 40
1
 40
1
 10
0.067954
 20
0.073310
 30
0.0
 10
0.066772
 20
0.075357
 30
0.0
 10
0.064587
 20
0.076619
 30
0.0
 10
0.062224
 20
0.076619
 30
0.0
  0
LWPOLYLINE
  5
10d
100
AcDbEntity
  8
Layer_1
 62
7
100
AcDbPolyline
 90
2
 70
1
 10
0.055502
 20
0.053333
 30
0.0
 10
0.055502
 20
0.056667
 30
0.0
  0
SPLINE
  5
10e
100
AcDbEntity
  8
Layer_1
 62
7
100
AcDbSpline
 70
8
 71
3
 72
8
 73
4
 74
0
 40
0
 40
0
 40
0
 40
0
 40
1
 40
1
 40
1
 40
1
 10
0.062224
 20
0.078927
 30
0.0
 10
0.064587
 20
0.078937
 30
0.0
 10
0.066772
 20
0.080198
 30
0.0
 10
0.067954
 20
0.082246
 30
0.0
  0
SPLINE
  5
10f
100
AcDbEntity
  8
Layer_1
 62
7
100
AcDbSpline
 70
8
 71
3
 72
8
 73
4
 74
0
 40
0
 40
0
 40
0
 40
0
 40
1
 40
1
 40
1
 40
1
 10
0.067954
 20
0.082246
 30
0.0
 10
0.069137
 20
0.084294
 30
0.0
 10
0.069137
 20
0.086817
 30
0.0
 10
0.067954
 20
0.088865
 30
0.0
  0
SPLINE
  5
110
100
AcDbEntity
  8
Layer_1
 62
7
100
AcDbSpline
 70
8
 71
3
 72
8
 73
4
 74
0
 40
0
 40
0
 40
0
 40
0
 40
1
 40
1
 40
1
 40
1
 10
0.067954
 20
0.088865
 30
0.0
 10
0.066772
 20
0.090913
 30
0.0
 10
0.064587
 20
0.092175
 30
0.0
 10
0.062222
 20
0.092175
 30
0.0
  0
LWPOLYLINE
  5
111
100
AcDbEntity
  8
Layer_1
 62
7
100
AcDbPolyline
 90
2
 70
1
 10
0.062224
 20
0.076619
 30
0.0
 10
0.062224
 20
0.078927
 30
0.0
  0
SPLINE
  5
112
100
AcDbEntity
  8
Layer_1
 62
7
100
AcDbSpline
 70
8
 71
3
 72
8
 73
4
 74
0
 40
0
 40
0
 40
0
 40
0
 40
1
 40
1
 40
1
 40
1
 10
0.034444
 20
0.092175
 30
0.0
 10
0.032080
 20
0.092175
 30
0.0
 10
0.029895
 20
0.090913
 30
0.0
 10
0.028712
 20
0.088865
 30
0.0
  0
SPLINE
  5
113
100
AcDbEntity
  8
Layer_1
 62
7
100
AcDbSpline
 70
8
 71
3
 72
8
 73
4
 74
0
 40
0
 40
0
 40
0
 40
0
 40
1
 40
1
 40
1
 40
1
 10
0.028712
 20
0.088865
 30
0.0
 10
0.027530
 20
0.086817
 30
0.0
 10
0.027530
 20
0.084294
 30
0.0
 10
0.028712
 20
0.082246
 30
0.0
  0
SPLINE
  5
114
100
AcDbEntity
  8
Layer_1
 62
7
100
AcDbSpline
 70
8
 71
3
 72
8
 73
4
 74
0
 40
0
 40
0
 40
0
 40
0
 40
1
 40
1
 40
1
 40
1
 10
0.028712
 20
0.082246
 30
0.0
 10
0.029895
 20
0.080198
 30
0.0
 10
0.032080
 20
0.078937
 30
0.0
 10
0.034444
 20
0.078937
 30
0.0
  0
LWPOLYLINE
  5
115
100
AcDbEntity
  8
Layer_1
 62
7
100
AcDbPolyline
 90
2
 70
1
 10
0.062222
 20
0.092175
 30
0.0
 10
0.034444
 20
0.092175
 30
0.0
  0
SPLINE
  5
116
100
AcDbEntity
  8
Layer_1
 62
7
100
AcDbSpline
 70
8
 71
3
 72
8
 73
4
 74
0
 40
0
 40
0
 40
0
 40
0
 40
1
 40
1
 40
1
 40
1
 10
0.034444
 20
0.076619
 30
0.0
 10
0.032080
 20
0.076619
 30
0.0
 10
0.029895
 20
0.075357
 30
0.0
 10
0.028712
 20
0.073310
 30
0.0
  0
LWPOLYLINE
  5
117
100
AcDbEntity
  8
Layer_1
 62
7
100
AcDbPolyline
 90
2
 70
1
 10
0.034444
 20
0.078937
 30
0.0
 10
0.034444
 20
0.076619
 30
0.0
  0
SPLINE
  5
118
100
AcDbEntity
  8
Layer_1
 62
7
100
AcDbSpline
 70
8
 71
3
 72
8
 73
4
 74
0
 40
0
 40
0
 40
0
 40
0
 40
1
 40
1
 40
1
 40
1
 10
0.035388
 20
0.085556
 30
0.0
 10
0.035388
 20
0.085035
 30
0.0
 10
0.034965
 20
0.084612
 30
0.0
 10
0.034444
 20
0.084612
 30
0.0
  0
SPLINE
  5
119
100
AcDbEntity
  8
Layer_1
 62
7
100
AcDbSpline
 70
8
 71
3
 72
8
 73
4
 74
0
 40
0
 40
0
 40
0
 40
0
 40
1
 40
1
 40
1
 40
1
 10
0.034444
 20
0.084612
 30
0.0
 10
0.033923
 20
0.084612
 30
0.0
 10
0.033501
 20
0.085035
 30
0.0
 10
0.033501
 20
0.085556
 30
0.0
  0
SPLINE
  5
11a
100
AcDbEntity
  8
Layer_1
 62
7
100
AcDbSpline
 70
8
 71
3
 72
8
 73
4
 74
0
 40
0
 40
0
 40
0
 40
0
 40
1
 40
1
 40
1
 40
1
 10
0.033501
 20
0.085556
 30
0.0
 10
0.033501
 20
0.085806
 30
0.0
 10
0.033600
 20
0.086046
 30
0.0
 10
0.033777
 20
0.086223
 30
0.0
  0
SPLINE
  5
11b
100
AcDbEntity
  8
Layer_1
 62
7
100
AcDbSpline
 70
8
 71
3
 72
8
 73
4
 74
0
 40
0
 40
0
 40
0
 40
0
 40
1
 40
1
 40
1
 40
1
 10
0.033777
 20
0.086223
 30
0.0
 10
0.033954
 20
0.086400
 30
0.0
 10
0.034194
 20
0.086499
 30
0.0
 10
0.034444
 20
0.086499
 30
0.0
  0
SPLINE
  5
11c
100
AcDbEntity
  8
Layer_1
 62
7
100
AcDbSpline
 70
8
 71
3
 72
8
 73
4
 74
0
 40
0
 40
0
 40
0
 40
0
 40
1
 40
1
 40
1
 40
1
 10
0.034444
 20
0.086499
 30
0.0
 10
0.034695
 20
0.086499
 30
0.0
 10
0.034935
 20
0.086400
 30
0.0
 10
0.035112
 20
0.086223
 30
0.0
  0
SPLINE
  5
11d
100
AcDbEntity
  8
Layer_1
 62
7
100
AcDbSpline
 70
8
 71
3
 72
8
 73
4
 74
0
 40
0
 40
0
 40
0
 40
0
 40
1
 40
1
 40
1
 40
1
 10
0.035112
 20
0.086223
 30
0.0
 10
0.035288
 20
0.086046
 30
0.0
 10
0.035388
 20
0.085806
 30
0.0
 10
0.035388
 20
0.085556
 30
0.0
  0
LWPOLYLINE
  5
11e
100
AcDbEntity
  8
Layer_1
 62
7
100
AcDbPolyline
 90
2
 70
1
 10
0.028712
 20
0.073310
 30
0.0
 10
0.028712
 20
0.073310
 30
0.0
  0
SPLINE
  5
11f
100
AcDbEntity
  8
Layer_1
 62
7
100
AcDbSpline
 70
8
 71
3
 72
8
 73
4
 74
0
 40
0
 40
0
 40
0
 40
0
 40
1
 40
1
 40
1
 40
1
 10
0.035388
 20
0.070000
 30
0.0
 10
0.035388
 20
0.069750
 30
0.0
 10
0.035288
 20
0.069510
 30
0.0
 10
0.035112
 20
0.069333
 30
0.0
  0
SPLINE
  5
120
100
AcDbEntity
  8
Layer_1
 62
7
100
AcDbSpline
 70
8
 71
3
 72
8
 73
4
 74
0
 40
0
 40
0
 40
0
 40
0
 40
1
 40
1
 40
1
 40
1
 10
0.035112
 20
0.069333
 30
0.0
 10
0.034935
 20
0.069156
 30
0.0
 10
0.034695
 20
0.069057
 30
0.0
 10
0.034444
 20
0.069057
 30
0.0
  0
SPLINE
  5
121
100
AcDbEntity
  8
Layer_1
 62
7
100
AcDbSpline
 70
8
 71
3
 72
8
 73
4
 74
0
 40
0
 40
0
 40
0
 40
0
 40
1
 40
1
 40
1
 40
1
 10
0.034444
 20
0.069057
 30
0.0
 10
0.034194
 20
0.069057
 30
0.0
 10
0.033954
 20
0.069156
 30
0.0
 10
0.033777
 20
0.069333
 30
0.0
  0
SPLINE
  5
122
100
AcDbEntity
  8
Layer_1
 62
7
100
AcDbSpline
 70
8
 71
3
 72
8
 73
4
 74
0
 40
0
 40
0
 40
0
 40
0
 40
1
 40
1
 40
1
 40
1
 10
0.033777
 20
0.069333
 30
0.0
 10
0.033600
 20
0.069510
 30
0.0
 10
0.033501
 20
0.069750
 30
0.0
 10
0.033501
 20
0.070000
 30
0.0
  0
SPLINE
  5
123
100
AcDbEntity
  8
Layer_1
 62
7
100
AcDbSpline
 70
8
 71
3
 72
8
 73
4
 74
0
 40
0
 40
0
 40
0
 40
0
 40
1
 40
1
 40
1
 40
1
 10
0.033501
 20
0.070000
 30
0.0
 10
0.033501
 20
0.070250
 30
0.0
 10
0.033600
 20
0.070490
 30
0.0
 10
0.033777
 20
0.070667
 30
0.0
  0
SPLINE
  5
124
100
AcDbEntity
  8
Layer_1
 62
7
100
AcDbSpline
 70
8
 71
3
 72
8
 73
4
 74
0
 40
0
 40
0
 40
0
 40
0
 40
1
 40
1
 40
1
 40
1
 10
0.033777
 20
0.070667
 30
0.0
 10
0.033954
 20
0.070844
 30
0.0
 10
0.034194
 20
0.070943
 30
0.0
 10
0.034444
 20
0.070943
 30
0.0
  0
SPLINE
  5
125
100
AcDbEntity
  8
Layer_1
 62
7
100
AcDbSpline
 70
8
 71
3
 72
8
 73
4
 74
0
 40
0
 40
0
 40
0
 40
0
 40
1
 40
1
 40
1
 40
1
 10
0.034444
 20
0.070943
 30
0.0
 10
0.034695
 20
0.070943
 30
0.0
 10
0.034935
 20
0.070844
 30
0.0
 10
0.035112
 20
0.070667
 30
0.0
  0
SPLINE
  5
126
100
AcDbEntity
  8
Layer_1
 62
7
100
AcDbSpline
 70
8
 71
3
 72
8
 73
4
 74
0
 40
0
 40
0
 40
0
 40
0
 40
1
 40
1
 40
1
 40
1
 10
0.035112
 20
0.070667
 30
0.0
 10
0.035288
 20
0.070490
 30
0.0
 10
0.035388
 20
0.070250
 30
0.0
 10
0.035388
 20
0.070000
 30
0.0
  0
LWPOLYLINE
  5
127
100
AcDbEntity
  8
Layer_1
 62
7
100
AcDbPolyline
 90
2
 70
1
 10
0.035388
 20
0.085556
 30
0.0
 10
0.035388
 20
0.085556
 30
0.0
  0
SPLINE
  5
128
100
AcDbEntity
  8
Layer_1
 62
7
100
AcDbSpline
 70
8
 71
3
 72
8
 73
4
 74
0
 40
0
 40
0
 40
0
 40
0
 40
1
 40
1
 40
1
 40
1
 10
0.063166
 20
0.085556
 30
0.0
 10
0.063166
 20
0.085035
 30
0.0
 10
0.062743
 20
0.084612
 30
0.0
 10
0.062222
 20
0.084612
 30
0.0
  0
SPLINE
  5
129
100
AcDbEntity
  8
Layer_1
 62
7
100
AcDbSpline
 70
8
 71
3
 72
8
 73
4
 74
0
 40
0
 40
0
 40
0
 40
0
 40
1
 40
1
 40
1
 40
1
 10
0.062222
 20
0.084612
 30
0.0
 10
0.061701
 20
0.084612
 30
0.0
 10
0.061279
 20
0.085035
 30
0.0
 10
0.061279
 20
0.085556
 30
0.0
  0
SPLINE
  5
12a
100
AcDbEntity
  8
Layer_1
 62
7
100
AcDbSpline
 70
8
 71
3
 72
8
 73
4
 74
0
 40
0
 40
0
 40
0
 40
0
 40
1
 40
1
 40
1
 40
1
 10
0.061279
 20
0.085556
 30
0.0
 10
0.061279
 20
0.085806
 30
0.0
 10
0.061378
 20
0.086046
 30
0.0
 10
0.061555
 20
0.086223
 30
0.0
  0
SPLINE
  5
12b
100
AcDbEntity
  8
Layer_1
 62
7
100
AcDbSpline
 70
8
 71
3
 72
8
 73
4
 74
0
 40
0
 40
0
 40
0
 40
0
 40
1
 40
1
 40
1
 40
1
 10
0.061555
 20
0.086223
 30
0.0
 10
0.061732
 20
0.086400
 30
0.0
 10
0.061972
 20
0.086499
 30
0.0
 10
0.062222
 20
0.086499
 30
0.0
  0
SPLINE
  5
12c
100
AcDbEntity
  8
Layer_1
 62
7
100
AcDbSpline
 70
8
 71
3
 72
8
 73
4
 74
0
 40
0
 40
0
 40
0
 40
0
 40
1
 40
1
 40
1
 40
1
 10
0.062222
 20
0.086499
 30
0.0
 10
0.062472
 20
0.086499
 30
0.0
 10
0.062712
 20
0.086400
 30
0.0
 10
0.062889
 20
0.086223
 30
0.0
  0
SPLINE
  5
12d
100
AcDbEntity
  8
Layer_1
 62
7
100
AcDbSpline
 70
8
 71
3
 72
8
 73
4
 74
0
 40
0
 40
0
 40
0
 40
0
 40
1
 40
1
 40
1
 40
1
 10
0.062889
 20
0.086223
 30
0.0
 10
0.063066
 20
0.086046
 30
0.0
 10
0.063166
 20
0.085806
 30
0.0
 10
0.063166
 20
0.085556
 30
0.0
  0
LWPOLYLINE
  5
12e
100
AcDbEntity
  8
Layer_1
 62
7
100
AcDbPolyline
 90
2
 70
1
 10
0.035388
 20
0.070000
 30
0.0
 10
0.035388
 20
0.070000
 30
0.0
  0
SPLINE
  5
12f
100
AcDbEntity
  8
Layer_1
 62
7
100
AcDbSpline
 70
8
 71
3
 72
8
 73
4
 74
0
 40
0
 40
0
 40
0
 40
0
 40
1
 40
1
 40
1
 40
1
 10
0.063166
 20
0.070000
 30
0.0
 10
0.063166
 20
0.069479
 30
0.0
 10
0.062743
 20
0.069057
 30
0.0
 10
0.062222
 20
0.069057
 30
0.0
  0
SPLINE
  5
130
100
AcDbEntity
  8
Layer_1
 62
7
100
AcDbSpline
 70
8
 71
3
 72
8
 73
4
 74
0
 40
0
 40
0
 40
0
 40
0
 40
1
 40
1
 40
1
 40
1
 10
0.062222
 20
0.069057
 30
0.0
 10
0.061701
 20
0.069057
 30
0.0
 10
0.061279
 20
0.069479
 30
0.0
 10
0.061279
 20
0.070000
 30
0.0
  0
SPLINE
  5
131
100
AcDbEntity
  8
Layer_1
 62
7
100
AcDbSpline
 70
8
 71
3
 72
8
 73
4
 74
0
 40
0
 40
0
 40
0
 40
0
 40
1
 40
1
 40
1
 40
1
 10
0.061279
 20
0.070000
 30
0.0
 10
0.061279
 20
0.070250
 30
0.0
 10
0.061378
 20
0.070490
 30
0.0
 10
0.061555
 20
0.070667
 30
0.0
  0
SPLINE
  5
132
100
AcDbEntity
  8
Layer_1
 62
7
100
AcDbSpline
 70
8
 71
3
 72
8
 73
4
 74
0
 40
0
 40
0
 40
0
 40
0
 40
1
 40
1
 40
1
 40
1
 10
0.061555
 20
0.070667
 30
0.0
 10
0.061732
 20
0.070844
 30
0.0
 10
0.061972
 20
0.070943
 30
0.0
 10
0.062222
 20
0.070943
 30
0.0
  0
SPLINE
  5
133
100
AcDbEntity
  8
Layer_1
 62
7
100
AcDbSpline
 70
8
 71
3
 72
8
 73
4
 74
0
 40
0
 40
0
 40
0
 40
0
 40
1
 40
1
 40
1
 40
1
 10
0.062222
 20
0.070943
 30
0.0
 10
0.062472
 20
0.070943
 30
0.0
 10
0.062712
 20
0.070844
 30
0.0
 10
0.062889
 20
0.070667
 30
0.0
  0
SPLINE
  5
134
100
AcDbEntity
  8
Layer_1
 62
7
100
AcDbSpline
 70
8
 71
3
 72
8
 73
4
 74
0
 40
0
 40
0
 40
0
 40
0
 40
1
 40
1
 40
1
 40
1
 10
0.062889
 20
0.070667
 30
0.0
 10
0.063066
 20
0.070490
 30
0.0
 10
0.063166
 20
0.070250
 30
0.0
 10
0.063166
 20
0.070000
 30
0.0
  0
LWPOLYLINE
  5
135
100
AcDbEntity
  8
Layer_1
 62
7
100
AcDbPolyline
 90
2
 70
1
 10
0.063166
 20
0.085556
 30
0.0
 10
0.063166
 20
0.085556
 30
0.0
  0
SPLINE
  5
136
100
AcDbEntity
  8
Layer_1
 62
7
100
AcDbSpline
 70
8
 71
3
 72
8
 73
4
 74
0
 40
0
 40
0
 40
0
 40
0
 40
1
 40
1
 40
1
 40
1
 10
0.048962
 20
0.085556
 30
0.0
 10
0.048962
 20
0.085389
 30
0.0
 10
0.048896
 20
0.085229
 30
0.0
 10
0.048778
 20
0.085111
 30
0.0
  0
SPLINE
  5
137
100
AcDbEntity
  8
Layer_1
 62
7
100
AcDbSpline
 70
8
 71
3
 72
8
 73
4
 74
0
 40
0
 40
0
 40
0
 40
0
 40
1
 40
1
 40
1
 40
1
 10
0.048778
 20
0.085111
 30
0.0
 10
0.048660
 20
0.084993
 30
0.0
 10
0.048500
 20
0.084927
 30
0.0
 10
0.048333
 20
0.084927
 30
0.0
  0
SPLINE
  5
138
100
AcDbEntity
  8
Layer_1
 62
7
100
AcDbSpline
 70
8
 71
3
 72
8
 73
4
 74
0
 40
0
 40
0
 40
0
 40
0
 40
1
 40
1
 40
1
 40
1
 10
0.048333
 20
0.084927
 30
0.0
 10
0.048167
 20
0.084927
 30
0.0
 10
0.048007
 20
0.084993
 30
0.0
 10
0.047889
 20
0.085111
 30
0.0
  0
SPLINE
  5
139
100
AcDbEntity
  8
Layer_1
 62
7
100
AcDbSpline
 70
8
 71
3
 72
8
 73
4
 74
0
 40
0
 40
0
 40
0
 40
0
 40
1
 40
1
 40
1
 40
1
 10
0.047889
 20
0.085111
 30
0.0
 10
0.047771
 20
0.085229
 30
0.0
 10
0.047704
 20
0.085389
 30
0.0
 10
0.047704
 20
0.085556
 30
0.0
  0
SPLINE
  5
13a
100
AcDbEntity
  8
Layer_1
 62
7
100
AcDbSpline
 70
8
 71
3
 72
8
 73
4
 74
0
 40
0
 40
0
 40
0
 40
0
 40
1
 40
1
 40
1
 40
1
 10
0.047704
 20
0.085556
 30
0.0
 10
0.047704
 20
0.085722
 30
0.0
 10
0.047771
 20
0.085882
 30
0.0
 10
0.047889
 20
0.086000
 30
0.0
  0
SPLINE
  5
13b
100
AcDbEntity
  8
Layer_1
 62
7
100
AcDbSpline
 70
8
 71
3
 72
8
 73
4
 74
0
 40
0
 40
0
 40
0
 40
0
 40
1
 40
1
 40
1
 40
1
 10
0.047889
 20
0.086000
 30
0.0
 10
0.048007
 20
0.086118
 30
0.0
 10
0.048167
 20
0.086184
 30
0.0
 10
0.048333
 20
0.086184
 30
0.0
  0
SPLINE
  5
13c
100
AcDbEntity
  8
Layer_1
 62
7
100
AcDbSpline
 70
8
 71
3
 72
8
 73
4
 74
0
 40
0
 40
0
 40
0
 40
0
 40
1
 40
1
 40
1
 40
1
 10
0.048333
 20
0.086184
 30
0.0
 10
0.048500
 20
0.086184
 30
0.0
 10
0.048660
 20
0.086118
 30
0.0
 10
0.048778
 20
0.086000
 30
0.0
  0
SPLINE
  5
13d
100
AcDbEntity
  8
Layer_1
 62
7
100
AcDbSpline
 70
8
 71
3
 72
8
 73
4
 74
0
 40
0
 40
0
 40
0
 40
0
 40
1
 40
1
 40
1
 40
1
 10
0.048778
 20
0.086000
 30
0.0
 10
0.048896
 20
0.085882
 30
0.0
 10
0.048962
 20
0.085722
 30
0.0
 10
0.048962
 20
0.085556
 30
0.0
  0
LWPOLYLINE
  5
13e
100
AcDbEntity
  8
Layer_1
 62
7
100
AcDbPolyline
 90
2
 70
1
 10
0.063166
 20
0.070000
 30
0.0
 10
0.063166
 20
0.070000
 30
0.0
  0
SPLINE
  5
13f
100
AcDbEntity
  8
Layer_1
 62
7
100
AcDbSpline
 70
8
 71
3
 72
8
 73
4
 74
0
 40
0
 40
0
 40
0
 40
0
 40
1
 40
1
 40
1
 40
1
 10
0.048958
 20
0.052773
 30
0.0
 10
0.048958
 20
0.052607
 30
0.0
 10
0.048892
 20
0.052447
 30
0.0
 10
0.048774
 20
0.052329
 30
0.0
  0
SPLINE
  5
140
100
AcDbEntity
  8
Layer_1
 62
7
100
AcDbSpline
 70
8
 71
3
 72
8
 73
4
 74
0
 40
0
 40
0
 40
0
 40
0
 40
1
 40
1
 40
1
 40
1
 10
0.048774
 20
0.052329
 30
0.0
 10
0.048656
 20
0.052211
 30
0.0
 10
0.048496
 20
0.052144
 30
0.0
 10
0.048329
 20
0.052144
 30
0.0
  0
SPLINE
  5
141
100
AcDbEntity
  8
Layer_1
 62
7
100
AcDbSpline
 70
8
 71
3
 72
8
 73
4
 74
0
 40
0
 40
0
 40
0
 40
0
 40
1
 40
1
 40
1
 40
1
 10
0.048329
 20
0.052144
 30
0.0
 10
0.048162
 20
0.052144
 30
0.0
 10
0.048002
 20
0.052211
 30
0.0
 10
0.047884
 20
0.052329
 30
0.0
  0
SPLINE
  5
142
100
AcDbEntity
  8
Layer_1
 62
7
100
AcDbSpline
 70
8
 71
3
 72
8
 73
4
 74
0
 40
0
 40
0
 40
0
 40
0
 40
1
 40
1
 40
1
 40
1
 10
0.047884
 20
0.052329
 30
0.0
 10
0.047766
 20
0.052447
 30
0.0
 10
0.047700
 20
0.052607
 30
0.0
 10
0.047700
 20
0.052773
 30
0.0
  0
SPLINE
  5
143
100
AcDbEntity
  8
Layer_1
 62
7
100
AcDbSpline
 70
8
 71
3
 72
8
 73
4
 74
0
 40
0
 40
0
 40
0
 40
0
 40
1
 40
1
 40
1
 40
1
 10
0.047700
 20
0.052773
 30
0.0
 10
0.047700
 20
0.052940
 30
0.0
 10
0.047766
 20
0.053100
 30
0.0
 10
0.047884
 20
0.053218
 30
0.0
  0
SPLINE
  5
144
100
AcDbEntity
  8
Layer_1
 62
7
100
AcDbSpline
 70
8
 71
3
 72
8
 73
4
 74
0
 40
0
 40
0
 40
0
 40
0
 40
1
 40
1
 40
1
 40
1
 10
0.047884
 20
0.053218
 30
0.0
 10
0.048002
 20
0.053336
 30
0.0
 10
0.048162
 20
0.053402
 30
0.0
 10
0.048329
 20
0.053402
 30
0.0
  0
SPLINE
  5
145
100
AcDbEntity
  8
Layer_1
 62
7
100
AcDbSpline
 70
8
 71
3
 72
8
 73
4
 74
0
 40
0
 40
0
 40
0
 40
0
 40
1
 40
1
 40
1
 40
1
 10
0.048329
 20
0.053402
 30
0.0
 10
0.048496
 20
0.053402
 30
0.0
 10
0.048656
 20
0.053336
 30
0.0
 10
0.048774
 20
0.053218
 30
0.0
  0
SPLINE
  5
146
100
AcDbEntity
  8
Layer_1
 62
7
100
AcDbSpline
 70
8
 71
3
 72
8
 73
4
 74
0
 40
0
 40
0
 40
0
 40
0
 40
1
 40
1
 40
1
 40
1
 10
0.048774
 20
0.053218
 30
0.0
 10
0.048892
 20
0.053100
 30
0.0
 10
0.048958
 20
0.052940
 30
0.0
 10
0.048958
 20
0.052773
 30
0.0
  0
LWPOLYLINE
  5
147
100
AcDbEntity
  8
Layer_1
 62
7
100
AcDbPolyline
 90
2
 70
1
 10
0.048962
 20
0.085556
 30
0.0
 10
0.048962
 20
0.085556
 30
0.0
  0
LWPOLYLINE
  5
148
100
AcDbEntity
  8
Layer_1
 62
7
100
AcDbPolyline
 90
2
 70
1
 10
0.048958
 20
0.052773
 30
0.0
 10
0.048958
 20
0.052773
 30
0.0
  0
ENDSEC
  0
SECTION
  2
OBJECTS
  0
DICTIONARY
  5
C
330
0
100
AcDbDictionary
  3
ACAD_GROUP
350
D
  3
ACAD_MLINESTYLE
350
17
  0
DICTIONARY
  5
D
330
C
100
AcDbDictionary
  0
DICTIONARY
  5
1A
330
C
100
AcDbDictionary
  0
DICTIONARY
  5
17
330
C
100
AcDbDictionary
  3
STANDARD
350
18
  0
DICTIONARY
  5
19
330
C
100
AcDbDictionary
  0
ENDSEC
  0
EOF
