<?xml version="1.0" encoding="UTF-8" standalone="no"?>
<!-- Created with Inkscape (http://www.inkscape.org/) -->

<svg
   xmlns:dc="http://purl.org/dc/elements/1.1/"
   xmlns:cc="http://creativecommons.org/ns#"
   xmlns:rdf="http://www.w3.org/1999/02/22-rdf-syntax-ns#"
   xmlns:svg="http://www.w3.org/2000/svg"
   xmlns="http://www.w3.org/2000/svg"
   xmlns:sodipodi="http://sodipodi.sourceforge.net/DTD/sodipodi-0.dtd"
   xmlns:inkscape="http://www.inkscape.org/namespaces/inkscape"
   width="8.5in"
   height="11in"
   viewBox="0 0 8.5 11"
   id="svg3336"
   version="1.1"
   inkscape:version="0.91 r13725"
   sodipodi:docname="Gcodeready 4mm post.svg"
   inkscape:export-filename="C:\Users\ryne\Keyfobroundedsmalllabeled.png"
   inkscape:export-xdpi="270.26999"
   inkscape:export-ydpi="270.26999">
  <defs
     id="defs3338" />
  <sodipodi:namedview
     inkscape:document-units="in"
     pagecolor="#ffffff"
     bordercolor="#666666"
     borderopacity="1.0"
     inkscape:pageopacity="0.0"
     inkscape:pageshadow="2"
     inkscape:zoom="10.24"
     inkscape:cx="434.41854"
     inkscape:cy="609.71034"
     inkscape:current-layer="layer1"
     id="namedview3340"
     showgrid="true"
     inkscape:window-width="2560"
     inkscape:window-height="1578"
     inkscape:window-x="-8"
     inkscape:window-y="-8"
     inkscape:window-maximized="1"
     showguides="true"
     inkscape:snap-midpoints="true"
     inkscape:snap-smooth-nodes="true"
     inkscape:object-nodes="true"
     inkscape:snap-intersection-paths="true"
     inkscape:object-paths="true"
     gridtolerance="5"
     guidetolerance="5">
    <inkscape:grid
       type="xygrid"
       id="grid3495" />
  </sodipodi:namedview>
  <metadata
     id="metadata3342">
    <rdf:RDF>
      <cc:Work
         rdf:about="">
        <dc:format>image/svg+xml</dc:format>
        <dc:type
           rdf:resource="http://purl.org/dc/dcmitype/StillImage" />
        <dc:title></dc:title>
      </cc:Work>
    </rdf:RDF>
  </metadata>
  <g
     inkscape:label="Layer 1"
     inkscape:groupmode="layer"
     id="layer1">
    <path
       style="color:#000000;clip-rule:nonzero;display:inline;overflow:visible;visibility:visible;opacity:1;isolation:auto;mix-blend-mode:normal;color-interpolation:sRGB;color-interpolation-filters:linearRGB;solid-color:#000000;solid-opacity:1;fill:none;fill-opacity:1;fill-rule:evenodd;stroke:#000000;stroke-width:0.01;stroke-linecap:butt;stroke-linejoin:miter;stroke-miterlimit:4;stroke-dasharray:none;stroke-dashoffset:0;stroke-opacity:1;color-rendering:auto;image-rendering:auto;shape-rendering:auto;text-rendering:auto;enable-background:accumulate"
       d="m 2.5840964,4.402142 c -0.1064142,0.1843142 -0.1064142,0.4113989 0,0.5957131 0.1064141,0.1843143 0.3030754,0.2978565 0.5159034,0.2978565 0.1597681,0 0.3129928,0.065546 0.425966,0.1785195 C 3.638939,5.5872043 3.705,5.7402318 3.705,5.9 l -1.806e-4,0.3000372 c 0,0.2483593 0.1229706,0.4778528 0.3225902,0.6020324 0.1996195,0.1241799 0.4455612,0.1241799 0.6451807,0 C 4.8722099,6.67789 4.9951805,6.4483965 4.9951805,6.2000372 L 4.9951806,5.9 c 0,-0.1597685 0.065333,-0.3126376 0.1782529,-0.425611 C 5.286353,5.3614155 5.4403077,5.2957116 5.6,5.2957116 c 0.2128282,0 0.4094895,-0.1135422 0.5159036,-0.2978565 0.1064142,-0.1843142 0.1064142,-0.4113989 0,-0.5957131 C 6.0094895,4.2178277 5.8128282,4.1042855 5.6001916,4.1042854 l 0,-0.2076765 c 0.2126366,-8.959e-4 0.4092979,-0.1144381 0.515712,-0.2987524 0.1064142,-0.1843142 0.1064142,-0.4113989 0,-0.5957131 C 6.0094895,2.8178291 5.8128282,2.7042869 5.6,2.7042869 l -2.5,0 c -0.2128282,0 -0.4094895,0.1135422 -0.5159036,0.2978565 -0.1064142,0.1843142 -0.1064142,0.4113989 0,0.5957131 0.1064141,0.1843143 0.3030754,0.2978565 0.5159034,0.2978563 l 0,0.2085724 c -0.212828,3e-7 -0.4094893,0.1135425 -0.5159034,0.2978568 z"
       id="path8938"
       inkscape:connector-curvature="0"
       sodipodi:nodetypes="sscsccssccscssccssccssccs" />
    <path
       inkscape:connector-curvature="0"
       style="color:#000000;clip-rule:nonzero;display:inline;overflow:visible;visibility:visible;opacity:1;isolation:auto;mix-blend-mode:normal;color-interpolation:sRGB;color-interpolation-filters:linearRGB;solid-color:#000000;solid-opacity:1;fill:none;fill-opacity:1;fill-rule:evenodd;stroke:#000000;stroke-width:0.01;stroke-linecap:butt;stroke-linejoin:miter;stroke-miterlimit:4;stroke-dasharray:none;stroke-dashoffset:0;stroke-opacity:1;color-rendering:auto;image-rendering:auto;shape-rendering:auto;text-rendering:auto;enable-background:accumulate"
       d="m 4.4066039,3.2999999 a 0.05660354,0.05660368 0 0 1 -0.056604,0.056604 0.05660354,0.05660368 0 0 1 -0.056604,-0.056604 0.05660354,0.05660368 0 0 1 0.056604,-0.056604 0.05660354,0.05660368 0 0 1 0.056604,0.056604 z"
       id="path9660-3-1" />
    <path
       inkscape:connector-curvature="0"
       style="color:#000000;clip-rule:nonzero;display:inline;overflow:visible;visibility:visible;opacity:1;isolation:auto;mix-blend-mode:normal;color-interpolation:sRGB;color-interpolation-filters:linearRGB;solid-color:#000000;solid-opacity:1;fill:none;fill-opacity:1;fill-rule:evenodd;stroke:#000000;stroke-width:0.01;stroke-linecap:butt;stroke-linejoin:miter;stroke-miterlimit:4;stroke-dasharray:none;stroke-dashoffset:0;stroke-opacity:1;color-rendering:auto;image-rendering:auto;shape-rendering:auto;text-rendering:auto;enable-background:accumulate"
       d="M 4.406208,6.250396 A 0.05660354,0.05660368 0 0 1 4.349604,6.307 0.05660354,0.05660368 0 0 1 4.293,6.250396 0.05660354,0.05660368 0 0 1 4.349604,6.193792 0.05660354,0.05660368 0 0 1 4.406208,6.250396 Z"
       id="path9660-3-1-5" />
    <path
       inkscape:connector-curvature="0"
       style="color:#000000;clip-rule:nonzero;display:inline;overflow:visible;visibility:visible;opacity:1;isolation:auto;mix-blend-mode:normal;color-interpolation:sRGB;color-interpolation-filters:linearRGB;solid-color:#000000;solid-opacity:1;fill:none;fill-opacity:1;fill-rule:evenodd;stroke:#000000;stroke-width:0.00849057;stroke-linecap:butt;stroke-linejoin:miter;stroke-miterlimit:4;stroke-dasharray:none;stroke-dashoffset:0;stroke-opacity:1;color-rendering:auto;image-rendering:auto;shape-rendering:auto;text-rendering:auto;enable-background:accumulate"
       d="M 3.1707546,3.3000001 A 0.07075468,0.07075475 0 0 1 3.1,3.3707547 0.07075468,0.07075475 0 0 1 3.0292453,3.3000001 0.07075468,0.07075475 0 0 1 3.1,3.2292453 a 0.07075468,0.07075475 0 0 1 0.070755,0.070755 z"
       id="path9660-1" />
    <path
       inkscape:connector-curvature="0"
       style="color:#000000;clip-rule:nonzero;display:inline;overflow:visible;visibility:visible;opacity:1;isolation:auto;mix-blend-mode:normal;color-interpolation:sRGB;color-interpolation-filters:linearRGB;solid-color:#000000;solid-opacity:1;fill:none;fill-opacity:1;fill-rule:evenodd;stroke:#000000;stroke-width:0.00849055;stroke-linecap:butt;stroke-linejoin:miter;stroke-miterlimit:4;stroke-dasharray:none;stroke-dashoffset:0;stroke-opacity:1;color-rendering:auto;image-rendering:auto;shape-rendering:auto;text-rendering:auto;enable-background:accumulate"
       d="m 5.6707553,3.2999997 a 0.07075456,0.07075463 0 0 1 -0.070755,0.070755 0.07075456,0.07075463 0 0 1 -0.070755,-0.070755 0.07075456,0.07075463 0 0 1 0.070754,-0.070755 0.07075456,0.07075463 0 0 1 0.070755,0.070755 z"
       id="path9660-3-26" />
    <path
       inkscape:connector-curvature="0"
       style="color:#000000;clip-rule:nonzero;display:inline;overflow:visible;visibility:visible;opacity:1;isolation:auto;mix-blend-mode:normal;color-interpolation:sRGB;color-interpolation-filters:linearRGB;solid-color:#000000;solid-opacity:1;fill:none;fill-opacity:1;fill-rule:evenodd;stroke:#000000;stroke-width:0.00849053;stroke-linecap:butt;stroke-linejoin:miter;stroke-miterlimit:4;stroke-dasharray:none;stroke-dashoffset:0;stroke-opacity:1;color-rendering:auto;image-rendering:auto;shape-rendering:auto;text-rendering:auto;enable-background:accumulate"
       d="M 3.1707547,4.6999997 A 0.07075422,0.07075445 0 0 1 3.1,4.7707547 0.07075422,0.07075445 0 0 1 3.0292453,4.6999997 0.07075422,0.07075445 0 0 1 3.1,4.6292447 0.07075422,0.07075445 0 0 1 3.170755,4.6999997 Z"
       id="path9660-6-9" />
    <path
       inkscape:connector-curvature="0"
       style="color:#000000;clip-rule:nonzero;display:inline;overflow:visible;visibility:visible;opacity:1;isolation:auto;mix-blend-mode:normal;color-interpolation:sRGB;color-interpolation-filters:linearRGB;solid-color:#000000;solid-opacity:1;fill:none;fill-opacity:1;fill-rule:evenodd;stroke:#000000;stroke-width:0.00849054;stroke-linecap:butt;stroke-linejoin:miter;stroke-miterlimit:4;stroke-dasharray:none;stroke-dashoffset:0;stroke-opacity:1;color-rendering:auto;image-rendering:auto;shape-rendering:auto;text-rendering:auto;enable-background:accumulate"
       d="m 5.6707543,4.6999997 a 0.07075457,0.07075447 0 0 1 -0.070755,0.070755 0.07075457,0.07075447 0 0 1 -0.070754,-0.070755 0.07075457,0.07075447 0 0 1 0.070754,-0.070755 0.07075457,0.07075447 0 0 1 0.070755,0.070755 z"
       id="path9660-3-2-7" />
  </g>
</svg>
