<?xml version="1.0" encoding="UTF-8" standalone="no"?>
<!-- Created with Inkscape (http://www.inkscape.org/) -->

<svg
   xmlns:dc="http://purl.org/dc/elements/1.1/"
   xmlns:cc="http://creativecommons.org/ns#"
   xmlns:rdf="http://www.w3.org/1999/02/22-rdf-syntax-ns#"
   xmlns:svg="http://www.w3.org/2000/svg"
   xmlns="http://www.w3.org/2000/svg"
   xmlns:sodipodi="http://sodipodi.sourceforge.net/DTD/sodipodi-0.dtd"
   xmlns:inkscape="http://www.inkscape.org/namespaces/inkscape"
   width="8.5in"
   height="11in"
   viewBox="0 0 8.5 11"
   id="svg3336"
   version="1.1"
   inkscape:version="0.91 r13725"
   sodipodi:docname="RoundedKeyfobThickerSmallRoundFlap.svg"
   inkscape:export-filename="C:\Users\ryne\Keyfobroundedsmalllabeled.png"
   inkscape:export-xdpi="270.26999"
   inkscape:export-ydpi="270.26999">
  <defs
     id="defs3338" />
  <sodipodi:namedview
     inkscape:document-units="in"
     pagecolor="#ffffff"
     bordercolor="#666666"
     borderopacity="1.0"
     inkscape:pageopacity="0.0"
     inkscape:pageshadow="2"
     inkscape:zoom="4"
     inkscape:cx="384.29256"
     inkscape:cy="523.02583"
     inkscape:current-layer="layer1"
     id="namedview3340"
     showgrid="true"
     inkscape:window-width="2560"
     inkscape:window-height="1578"
     inkscape:window-x="-8"
     inkscape:window-y="-8"
     inkscape:window-maximized="1"
     showguides="true">
    <inkscape:grid
       type="xygrid"
       id="grid3495" />
  </sodipodi:namedview>
  <metadata
     id="metadata3342">
    <rdf:RDF>
      <cc:Work
         rdf:about="">
        <dc:format>image/svg+xml</dc:format>
        <dc:type
           rdf:resource="http://purl.org/dc/dcmitype/StillImage" />
        <dc:title></dc:title>
      </cc:Work>
    </rdf:RDF>
  </metadata>
  <g
     inkscape:label="Layer 1"
     inkscape:groupmode="layer"
     id="layer1">
    <path
       style="fill:none;fill-rule:evenodd;stroke:#000000;stroke-width:0.00655389px;stroke-linecap:butt;stroke-linejoin:miter;stroke-opacity:1"
       d="m 3.435,5.3967342 1.83,2e-7"
       id="path4394"
       inkscape:connector-curvature="0" />
    <path
       style="fill:none;fill-rule:evenodd;stroke:#000000;stroke-width:0.00718421px;stroke-linecap:butt;stroke-linejoin:miter;stroke-opacity:1"
       d="m 3.1,3.9964079 2.5,0"
       id="path3347"
       inkscape:connector-curvature="0" />
    <circle
       style="opacity:1"
       id="path3370"
       cx="3.0999999"
       cy="4.6999998"
       r="0.60000002" />
    <circle
       style="opacity:1"
       id="path3370-5"
       cx="5.5999999"
       cy="4.6999998"
       r="0.60000002" />
    <circle
       style="opacity:1;fill:#00ff00"
       id="path3405"
       cx="3.0999999"
       cy="4.6999998"
       r="0.090000004" />
    <circle
       style="opacity:1;fill:#ff0000"
       id="path3405-9"
       cx="5.5999999"
       cy="4.6999998"
       r="0.090000004" />
    <path
       style="fill:none;fill-rule:evenodd;stroke:#000000;stroke-width:0.0071852px;stroke-linecap:butt;stroke-linejoin:miter;stroke-opacity:1"
       d="m 3.1,2.8034074 2.5,0"
       id="path3347-8"
       inkscape:connector-curvature="0" />
    <path
       style="fill:none;fill-rule:evenodd;stroke:#000000;stroke-width:0.0071852px;stroke-linecap:butt;stroke-linejoin:miter;stroke-opacity:1"
       d="m 3.1,4.1024074 2.5,0"
       id="path3347-2-7"
       inkscape:connector-curvature="0" />
    <circle
       style="opacity:1"
       id="path3370-6"
       cx="3.0999999"
       cy="3.3"
       r="0.60000002" />
    <circle
       style="opacity:1"
       id="path3370-5-5"
       cx="5.5999999"
       cy="3.3"
       r="0.60000002" />
    <circle
       style="opacity:1;fill:#00ff00"
       id="path3405-98"
       cx="3.0999999"
       cy="3.3"
       r="0.090000004" />
    <circle
       style="opacity:1;fill:#ff0000"
       id="path3405-9-6"
       cx="5.5999999"
       cy="3.3"
       r="0.090000004" />
    <path
       style="opacity:1;fill:#000000"
       d="m 3.6999996,6.1999895 a 0.64999991,0.69999992 0 0 0 0.325,0.6062283 0.64999991,0.69999992 0 0 0 0.6499999,0 0.64999991,0.69999992 0 0 0 0.325,-0.6062283 l -0.00701,0 a 0.64299995,0.69299989 0 0 1 -0.3214843,0.6001519 0.64299995,0.69299989 0 0 1 -0.6430121,0 0.64299995,0.69299989 0 0 1 -0.3214843,-0.6001519 l -0.00701,0 z"
       id="path3470"
       inkscape:connector-curvature="0" />
    <circle
       id="path3368"
       cx="4.3499999"
       cy="6.29"
       style="opacity:1"
       r="0.40000001" />
    <path
       style="fill:none;fill-rule:evenodd;stroke:#000000;stroke-width:0.0071852px;stroke-linecap:butt;stroke-linejoin:miter;stroke-opacity:1"
       d="m 3.1,5.2963649 2.5,0"
       id="path3347-2"
       inkscape:connector-curvature="0" />
    <circle
       style="opacity:1;fill:#00ffff"
       id="path3524"
       cx="4.3499999"
       cy="-6.29"
       transform="scale(1,-1)"
       r="0.050000001" />
    <path
       style="fill:none;fill-rule:evenodd;stroke:#000000;stroke-width:0.01054093px;stroke-linecap:butt;stroke-linejoin:miter;stroke-opacity:1"
       d="m 3.4382705,5.2999984 0,0.1"
       id="path3545-2"
       inkscape:connector-curvature="0" />
    <path
       style="fill:none;fill-rule:evenodd;stroke:#000000;stroke-width:0.01054093px;stroke-linecap:butt;stroke-linejoin:miter;stroke-opacity:1"
       d="m 5.2622705,5.2999984 0,0.1"
       id="path3545-2-7"
       inkscape:connector-curvature="0" />
    <circle
       id="path3368-4"
       cx="4.3499999"
       cy="3.3"
       style="opacity:1"
       r="0.40000001" />
    <circle
       style="opacity:1;fill:#00ffff"
       id="path3524-0"
       cx="4.3499999"
       cy="-3.3"
       transform="scale(1,-1)"
       r="0.050000001" />
    <text
       xml:space="preserve"
       style="font-style:normal;font-variant:normal;font-weight:normal;font-stretch:normal;font-size:0.11111111px;line-height:125%;font-family:sans-serif;-inkscape-font-specification:'sans-serif, Normal';text-align:center;letter-spacing:0px;word-spacing:0px;writing-mode:lr-tb;text-anchor:middle;fill:#ffffff;fill-opacity:1;stroke:none;stroke-width:1px;stroke-linecap:butt;stroke-linejoin:miter;stroke-opacity:1"
       x="4.3526134"
       y="3.1886289"
       id="text3388"
       sodipodi:linespacing="125%"><tspan
         sodipodi:role="line"
         id="tspan3390"
         x="4.3526134"
         y="3.1886289"
         style="font-style:normal;font-variant:normal;font-weight:normal;font-stretch:normal;font-size:0.11111111px;line-height:125%;font-family:sans-serif;-inkscape-font-specification:'sans-serif, Normal';text-align:center;writing-mode:lr-tb;text-anchor:middle;fill:#ffffff">Snap</tspan><tspan
         sodipodi:role="line"
         x="4.3526134"
         y="3.3275177"
         style="font-style:normal;font-variant:normal;font-weight:normal;font-stretch:normal;font-size:0.11111111px;line-height:125%;font-family:sans-serif;-inkscape-font-specification:'sans-serif, Normal';text-align:center;writing-mode:lr-tb;text-anchor:middle;fill:#ffffff"
         id="tspan3392" /><tspan
         sodipodi:role="line"
         x="4.3526134"
         y="3.4664066"
         style="font-style:normal;font-variant:normal;font-weight:normal;font-stretch:normal;font-size:0.11111111px;line-height:125%;font-family:sans-serif;-inkscape-font-specification:'sans-serif, Normal';text-align:center;writing-mode:lr-tb;text-anchor:middle;fill:#ffffff"
         id="tspan3394">Rivet</tspan><tspan
         sodipodi:role="line"
         x="4.3526134"
         y="3.6052957"
         style="font-style:normal;font-variant:normal;font-weight:normal;font-stretch:normal;font-size:0.11111111px;line-height:125%;font-family:sans-serif;-inkscape-font-specification:'sans-serif, Normal';text-align:center;writing-mode:lr-tb;text-anchor:middle;fill:#ffffff"
         id="tspan3564">back</tspan></text>
    <text
       xml:space="preserve"
       style="font-style:normal;font-variant:normal;font-weight:normal;font-stretch:normal;font-size:0.11111111px;line-height:125%;font-family:sans-serif;-inkscape-font-specification:'sans-serif, Normal';text-align:center;letter-spacing:0px;word-spacing:0px;writing-mode:lr-tb;text-anchor:middle;fill:#ffffff;fill-opacity:1;stroke:none;stroke-width:1px;stroke-linecap:butt;stroke-linejoin:miter;stroke-opacity:1"
       x="4.34091"
       y="6.1533141"
       id="text3388-2"
       sodipodi:linespacing="125%"><tspan
         sodipodi:role="line"
         id="tspan3390-7"
         x="4.34091"
         y="6.1533141"
         style="font-style:normal;font-variant:normal;font-weight:normal;font-stretch:normal;font-size:0.11111111px;line-height:125%;font-family:sans-serif;-inkscape-font-specification:'sans-serif, Normal';text-align:center;writing-mode:lr-tb;text-anchor:middle;fill:#ffffff">Snap</tspan><tspan
         sodipodi:role="line"
         x="4.34091"
         y="6.2922029"
         style="font-style:normal;font-variant:normal;font-weight:normal;font-stretch:normal;font-size:0.11111111px;line-height:125%;font-family:sans-serif;-inkscape-font-specification:'sans-serif, Normal';text-align:center;writing-mode:lr-tb;text-anchor:middle;fill:#ffffff"
         id="tspan3392-1" /><tspan
         sodipodi:role="line"
         x="4.34091"
         y="6.4310918"
         style="font-style:normal;font-variant:normal;font-weight:normal;font-stretch:normal;font-size:0.11111111px;line-height:125%;font-family:sans-serif;-inkscape-font-specification:'sans-serif, Normal';text-align:center;writing-mode:lr-tb;text-anchor:middle;fill:#ffffff"
         id="tspan3394-7">Rivet</tspan><tspan
         sodipodi:role="line"
         x="4.34091"
         y="6.5699806"
         style="font-style:normal;font-variant:normal;font-weight:normal;font-stretch:normal;font-size:0.11111111px;line-height:125%;font-family:sans-serif;-inkscape-font-specification:'sans-serif, Normal';text-align:center;writing-mode:lr-tb;text-anchor:middle;fill:#ffffff"
         id="tspan3566">Top</tspan></text>
    <text
       xml:space="preserve"
       style="font-style:normal;font-variant:normal;font-weight:normal;font-stretch:normal;font-size:0.16666667px;line-height:125%;font-family:sans-serif;-inkscape-font-specification:'sans-serif, Normal';text-align:center;letter-spacing:0px;word-spacing:0px;writing-mode:lr-tb;text-anchor:middle;fill:#000000;fill-opacity:1;stroke:none;stroke-width:1px;stroke-linecap:butt;stroke-linejoin:miter;stroke-opacity:1"
       x="3.1142812"
       y="3.1483068"
       id="text3420"
       sodipodi:linespacing="125%"><tspan
         sodipodi:role="line"
         id="tspan3422"
         x="3.1142812"
         y="3.1483068"
         style="font-style:normal;font-variant:normal;font-weight:normal;font-stretch:normal;font-size:0.16666667px;line-height:125%;font-family:sans-serif;-inkscape-font-specification:'sans-serif, Normal';text-align:center;writing-mode:lr-tb;text-anchor:middle;fill:#ffffff">Chicago</tspan><tspan
         sodipodi:role="line"
         x="3.1142812"
         y="3.3566401"
         id="tspan3424"
         style="font-style:normal;font-variant:normal;font-weight:normal;font-stretch:normal;font-size:0.16666667px;line-height:125%;font-family:sans-serif;-inkscape-font-specification:'sans-serif, Normal';text-align:center;writing-mode:lr-tb;text-anchor:middle;fill:#ffffff" /><tspan
         sodipodi:role="line"
         x="3.1142812"
         y="3.5649736"
         id="tspan3426"
         style="font-style:normal;font-variant:normal;font-weight:normal;font-stretch:normal;font-size:0.16666667px;line-height:125%;font-family:sans-serif;-inkscape-font-specification:'sans-serif, Normal';text-align:center;writing-mode:lr-tb;text-anchor:middle;fill:#ffffff">Screw 1</tspan></text>
    <text
       xml:space="preserve"
       style="font-style:normal;font-variant:normal;font-weight:normal;font-stretch:normal;font-size:0.16666667px;line-height:125%;font-family:sans-serif;-inkscape-font-specification:'sans-serif, Normal';text-align:center;letter-spacing:0px;word-spacing:0px;writing-mode:lr-tb;text-anchor:middle;fill:#000000;fill-opacity:1;stroke:none;stroke-width:1px;stroke-linecap:butt;stroke-linejoin:miter;stroke-opacity:1"
       x="5.6033678"
       y="3.1450524"
       id="text3420-6"
       sodipodi:linespacing="125%"><tspan
         sodipodi:role="line"
         id="tspan3422-8"
         x="5.6033678"
         y="3.1450524"
         style="font-style:normal;font-variant:normal;font-weight:normal;font-stretch:normal;font-size:0.16666667px;line-height:125%;font-family:sans-serif;-inkscape-font-specification:'sans-serif, Normal';text-align:center;writing-mode:lr-tb;text-anchor:middle;fill:#ffffff">Chicago</tspan><tspan
         sodipodi:role="line"
         x="5.6033678"
         y="3.3533857"
         id="tspan3424-0"
         style="font-style:normal;font-variant:normal;font-weight:normal;font-stretch:normal;font-size:0.16666667px;line-height:125%;font-family:sans-serif;-inkscape-font-specification:'sans-serif, Normal';text-align:center;writing-mode:lr-tb;text-anchor:middle;fill:#ffffff" /><tspan
         sodipodi:role="line"
         x="5.6033678"
         y="3.5617192"
         id="tspan3426-8"
         style="font-style:normal;font-variant:normal;font-weight:normal;font-stretch:normal;font-size:0.16666667px;line-height:125%;font-family:sans-serif;-inkscape-font-specification:'sans-serif, Normal';text-align:center;writing-mode:lr-tb;text-anchor:middle;fill:#ffffff">Screw 2</tspan></text>
    <text
       xml:space="preserve"
       style="font-style:normal;font-variant:normal;font-weight:normal;font-stretch:normal;font-size:0.16666667px;line-height:125%;font-family:sans-serif;-inkscape-font-specification:'sans-serif, Normal';text-align:center;letter-spacing:0px;word-spacing:0px;writing-mode:lr-tb;text-anchor:middle;fill:#000000;fill-opacity:1;stroke:none;stroke-width:1px;stroke-linecap:butt;stroke-linejoin:miter;stroke-opacity:1"
       x="3.102217"
       y="4.5464821"
       id="text3420-0"
       sodipodi:linespacing="125%"><tspan
         sodipodi:role="line"
         id="tspan3422-7"
         x="3.102217"
         y="4.5464821"
         style="font-style:normal;font-variant:normal;font-weight:normal;font-stretch:normal;font-size:0.16666667px;line-height:125%;font-family:sans-serif;-inkscape-font-specification:'sans-serif, Normal';text-align:center;writing-mode:lr-tb;text-anchor:middle;fill:#ffffff">Chicago</tspan><tspan
         sodipodi:role="line"
         x="3.102217"
         y="4.7548156"
         id="tspan3424-6"
         style="font-style:normal;font-variant:normal;font-weight:normal;font-stretch:normal;font-size:0.16666667px;line-height:125%;font-family:sans-serif;-inkscape-font-specification:'sans-serif, Normal';text-align:center;writing-mode:lr-tb;text-anchor:middle;fill:#ffffff" /><tspan
         sodipodi:role="line"
         x="3.102217"
         y="4.9631486"
         id="tspan3426-9"
         style="font-style:normal;font-variant:normal;font-weight:normal;font-stretch:normal;font-size:0.16666667px;line-height:125%;font-family:sans-serif;-inkscape-font-specification:'sans-serif, Normal';text-align:center;writing-mode:lr-tb;text-anchor:middle;fill:#ffffff">Screw 1</tspan></text>
    <text
       xml:space="preserve"
       style="font-style:normal;font-variant:normal;font-weight:normal;font-stretch:normal;font-size:0.16666667px;line-height:125%;font-family:sans-serif;-inkscape-font-specification:'sans-serif, Normal';text-align:center;letter-spacing:0px;word-spacing:0px;writing-mode:lr-tb;text-anchor:middle;fill:#000000;fill-opacity:1;stroke:none;stroke-width:1px;stroke-linecap:butt;stroke-linejoin:miter;stroke-opacity:1"
       x="5.5943604"
       y="4.5543389"
       id="text3420-4"
       sodipodi:linespacing="125%"><tspan
         sodipodi:role="line"
         id="tspan3422-6"
         x="5.5943604"
         y="4.5543389"
         style="font-style:normal;font-variant:normal;font-weight:normal;font-stretch:normal;font-size:0.16666667px;line-height:125%;font-family:sans-serif;-inkscape-font-specification:'sans-serif, Normal';text-align:center;writing-mode:lr-tb;text-anchor:middle;fill:#ffffff">Chicago</tspan><tspan
         sodipodi:role="line"
         x="5.5943604"
         y="4.7626724"
         id="tspan3424-8"
         style="font-style:normal;font-variant:normal;font-weight:normal;font-stretch:normal;font-size:0.16666667px;line-height:125%;font-family:sans-serif;-inkscape-font-specification:'sans-serif, Normal';text-align:center;writing-mode:lr-tb;text-anchor:middle;fill:#ffffff" /><tspan
         sodipodi:role="line"
         x="5.5943604"
         y="4.9710054"
         id="tspan3426-5"
         style="font-style:normal;font-variant:normal;font-weight:normal;font-stretch:normal;font-size:0.16666667px;line-height:125%;font-family:sans-serif;-inkscape-font-specification:'sans-serif, Normal';text-align:center;writing-mode:lr-tb;text-anchor:middle;fill:#ffffff">Screw 2</tspan></text>
    <circle
       style="opacity:1;fill:none"
       id="path3370-50"
       cx="3.1138887"
       cy="5.9000001"
       r="0.60000002" />
    <path
       style="fill:#000000"
       d="M 279 476.36914 L 279 477 A 54.000002 54.000002 0 0 1 333 531 L 333.63086 531 A 54.629999 54.629999 0 0 0 279 476.36914 z "
       id="path3508"
       transform="scale(0.01111111,0.01111111)" />
    <path
       style="fill:#000000"
       d="M 504 476.36914 A 54.629999 54.629999 0 0 0 449.36914 531 L 450 531 A 54.000002 54.000002 0 0 1 504 477 L 504 476.36914 z "
       transform="scale(0.01111111,0.01111111)"
       id="path3508-5" />
    <path
       style="fill:none;fill-rule:evenodd;stroke:#000000;stroke-width:0.00655389px;stroke-linecap:butt;stroke-linejoin:miter;stroke-opacity:1"
       d="m 3.55,5.4967229 1.6,2e-7"
       id="path4394-1"
       inkscape:connector-curvature="0" />
    <path
       style="fill:#808080;fill-opacity:1"
       d="m 291.16032,475.72105 c 8.09924,-1.87575 16.21189,-5.9095 22.50565,-11.19019 17.14893,-14.38859 23.65637,-37.54569 16.55897,-58.92611 -5.90136,-17.77747 -21.30933,-31.5111 -39.82681,-35.49897 -2.22798,-0.4798 -1.61837,-0.48273 101.00849,-0.48388 l 103.25,-0.001 -2.625,0.60334 c -19.90124,4.57423 -35.71526,20.05858 -40.50093,39.65662 -2.06617,8.46131 -2.09749,17.69501 -0.088,25.93502 4.22644,17.33043 16.99873,31.69132 33.70019,37.89177 2.21215,0.82127 6.94211,2.16478 8.63871,2.45377 0.34375,0.0586 -45.66875,0.11392 -102.25,0.12304 l -102.875,0.0166 2.5037,-0.57985 0,10e-6 z"
       id="path8429"
       inkscape:connector-curvature="0"
       transform="scale(0.01111111,0.01111111)" />
    <path
       style="fill:#808080;fill-opacity:1"
       d="M 3.2351143,3.8855623 C 3.3251059,3.8647207 3.4152464,3.8199012 3.4851771,3.7612269 3.6757207,3.6013537 3.7480256,3.3440526 3.6691656,3.1064924 3.6471886,3.0402882 3.6067501,2.9686938 3.5590866,2.9116032 3.4811401,2.8182399 3.3698902,2.7484986 3.2493126,2.7174093 l -0.030906,-0.00797 1.1319443,-6.67e-5 1.1319443,-6.67e-5 -0.030556,0.00794 c -0.1543228,0.040077 -0.283949,0.1363407 -0.3667634,0.2723676 -0.080404,0.132068 -0.1060508,0.300409 -0.068947,0.4525545 0.04696,0.1925603 0.1888748,0.3521258 0.3744465,0.4210196 0.024579,0.00913 0.077135,0.024053 0.095986,0.027264 0.00382,6.512e-4 -0.5074305,0.00127 -1.136111,0.00137 L 3.2072955,3.892 3.2351143,3.8855573 Z M 4.4314592,3.6925344 C 4.5892294,3.6588447 4.7089494,3.5384547 4.7437419,3.3785043 4.7511352,3.3445151 4.7511191,3.2568334 4.7437085,3.2215598 4.6962375,2.9954656 4.4761653,2.8559135 4.2535529,2.9107424 4.1783751,2.9292585 4.114269,2.966639 4.0595715,3.0238536 c -0.07198,0.075293 -0.1098209,0.1702155 -0.1098209,0.275484 0,0.099656 0.033572,0.1896586 0.098813,0.2649029 0.064215,0.07406 0.1517345,0.1196735 0.2587269,0.1348413 0.02149,0.00305 0.098172,-9.967e-4 0.1241639,-0.00655 z"
       id="path8431"
       inkscape:connector-curvature="0" />
    <path
       style="fill:#f2f2f2;fill-opacity:1"
       d="m 310.03162,481.21082 0,-4.125 81.5,0 81.5,0 0,4.125 0,4.125 -81.5,0 -81.5,0 0,-4.125 z"
       id="path8435"
       inkscape:connector-curvature="0"
       transform="scale(0.01111111,0.01111111)" />
    <path
       style="fill:#f2f2f2;fill-opacity:1"
       d="m 317.5261,492.19184 c -1.89808,-1.92002 -4.23847,-3.95328 -6.37178,-5.5356 l -0.7477,-0.55458 81.125,0.005 c 76.382,0.005 81.08916,0.03 80.51192,0.42958 -1.59764,1.10593 -4.81092,3.84753 -6.70772,5.72309 l -2.0998,2.0763 -71.79522,0 -71.79522,0 -2.11948,-2.14398 z"
       id="path8437"
       inkscape:connector-curvature="0"
       transform="scale(0.01111111,0.01111111)" />
    <path
       style="fill:#f2f2f2;fill-opacity:1"
       d="m 307.53162,484.29719 c -1.76441,-1.17587 -6.62914,-3.55563 -9.375,-4.58612 -1.375,-0.51603 -3.9625,-1.31297 -5.75,-1.77099 l -3.25,-0.83277 9.8125,-0.0107 9.8125,-0.0107 0,4 c 0,2.2 -0.0281,3.99125 -0.0625,3.98056 -0.0344,-0.0107 -0.56875,-0.35683 -1.1875,-0.76919 z"
       id="path8439"
       inkscape:connector-curvature="0"
       transform="scale(0.01111111,0.01111111)" />
    <path
       style="fill:#f2f2f2;fill-opacity:1"
       d="m 474.28162,480.96082 0,-3.875 9.8125,0.0226 9.8125,0.0226 -2.03434,0.46935 c -4.71404,1.0876 -10.16294,3.17302 -14.40823,5.51435 -1.26908,0.69992 -2.4143,1.3735 -2.54493,1.49685 -0.55188,0.52116 -0.6375,0.0309 -0.6375,-3.65072 z"
       id="path8441"
       inkscape:connector-curvature="0"
       transform="scale(0.01111111,0.01111111)"
       inkscape:export-xdpi="270.26999"
       inkscape:export-ydpi="270.26999" />
    <path
       style="fill:none;fill-rule:evenodd;stroke:#000000;stroke-width:0.00718421px;stroke-linecap:butt;stroke-linejoin:miter;stroke-opacity:1"
       d="m 3.1,3.8964079 2.5,0"
       id="path3347-4"
       inkscape:connector-curvature="0" />
    <rect
       style="fill:#000000;fill-opacity:1"
       id="rect8460"
       width="0.0070000002"
       height="0.30000001"
       x="3.6999996"
       y="5.9000001" />
    <rect
       style="fill:#000000;fill-opacity:1"
       id="rect8460-3"
       width="0.0069999998"
       height="0.30000001"
       x="4.993"
       y="5.9000001" />
    <rect
       style="fill:#000000;fill-opacity:1"
       id="rect8460-9"
       width="0.0069999998"
       height="0.22"
       x="3.096"
       y="3.891" />
    <rect
       style="fill:#000000;fill-opacity:1"
       id="rect8460-9-2"
       width="0.0069999998"
       height="0.22"
       x="5.5960002"
       y="3.891" />
    <path
       style="fill:#808080;fill-opacity:1"
       d="m 385.66756,619.93301 c -12.19189,-1.37624 -23.56129,-6.83447 -32.71843,-15.7075 -9.95053,-9.6418 -16.12205,-21.86572 -18.55473,-36.75134 -0.36678,-2.24433 -0.45421,-5.47098 -0.60291,-22.25 -0.1454,-16.40638 -0.24095,-20.02728 -0.58261,-22.0778 -1.62201,-9.73477 -5.09528,-17.9542 -10.71622,-25.3597 l -1.94499,-2.5625 71.00033,0 71.00032,0 -1.08196,1.32835 c -4.95553,6.08406 -8.58763,13.36599 -10.56167,21.17493 -1.39494,5.51811 -1.40465,5.68012 -1.60377,26.74672 -0.20264,21.44059 -0.24706,22.12494 -1.8786,28.94719 -6.07939,25.4208 -26.09343,43.86821 -50.50476,46.5514 -2.68551,0.29518 -8.46377,0.27476 -11.25,-0.0398 z m 12.88388,-18.43079 c 6.63728,-1.33555 12.80007,-4.51219 17.63777,-9.09148 4.46052,-4.22225 7.59142,-9.10255 9.47795,-14.77374 1.47592,-4.43682 1.7504,-6.2461 1.7504,-11.53783 0,-5.34964 -0.32377,-7.45591 -1.80293,-11.7289 -4.28254,-12.37132 -14.58837,-21.26463 -27.57207,-23.79302 -3.50135,-0.68184 -10.21156,-0.62891 -13.6721,0.10783 -14.77207,3.14497 -26.03419,14.7785 -28.47502,29.41409 -0.54605,3.27422 -0.54605,8.72578 0,12 2.61044,15.65263 15.40821,27.86891 31.29932,29.87721 2.60075,0.32867 8.61467,0.0776 11.35668,-0.47416 z"
       id="path8513"
       inkscape:connector-curvature="0"
       transform="scale(0.01111111,0.01111111)" />
  </g>
</svg>
