<?xml version="1.0" encoding="UTF-8" standalone="no"?>
<!-- Created with Inkscape (http://www.inkscape.org/) -->

<svg
   xmlns:dc="http://purl.org/dc/elements/1.1/"
   xmlns:cc="http://creativecommons.org/ns#"
   xmlns:rdf="http://www.w3.org/1999/02/22-rdf-syntax-ns#"
   xmlns:svg="http://www.w3.org/2000/svg"
   xmlns="http://www.w3.org/2000/svg"
   xmlns:sodipodi="http://sodipodi.sourceforge.net/DTD/sodipodi-0.dtd"
   xmlns:inkscape="http://www.inkscape.org/namespaces/inkscape"
   width="8.5in"
   height="11in"
   viewBox="0 0 8.5 11"
   id="svg3336"
   version="1.1"
   inkscape:version="0.91 r13725"
   sodipodi:docname="RoundedKeyfobSmallRoundFlap.svg"
   inkscape:export-filename="C:\Users\ryne\Keyfobroundedsmalllabeled.png"
   inkscape:export-xdpi="270.26999"
   inkscape:export-ydpi="270.26999">
  <defs
     id="defs3338" />
  <sodipodi:namedview
     inkscape:document-units="in"
     pagecolor="#ffffff"
     bordercolor="#666666"
     borderopacity="1.0"
     inkscape:pageopacity="0.0"
     inkscape:pageshadow="2"
     inkscape:zoom="4"
     inkscape:cx="390.78162"
     inkscape:cy="586.41418"
     inkscape:current-layer="layer1"
     id="namedview3340"
     showgrid="true"
     inkscape:window-width="2560"
     inkscape:window-height="1578"
     inkscape:window-x="-8"
     inkscape:window-y="-8"
     inkscape:window-maximized="1"
     showguides="true">
    <inkscape:grid
       type="xygrid"
       id="grid3495" />
  </sodipodi:namedview>
  <metadata
     id="metadata3342">
    <rdf:RDF>
      <cc:Work
         rdf:about="">
        <dc:format>image/svg+xml</dc:format>
        <dc:type
           rdf:resource="http://purl.org/dc/dcmitype/StillImage" />
        <dc:title></dc:title>
      </cc:Work>
    </rdf:RDF>
  </metadata>
  <g
     inkscape:label="Layer 1"
     inkscape:groupmode="layer"
     id="layer1">
    <path
       style="fill:none;fill-rule:evenodd;stroke:#000000;stroke-width:0.00655389px;stroke-linecap:butt;stroke-linejoin:miter;stroke-opacity:1"
       d="m 3.435,5.3967342 1.83,2e-7"
       id="path4394"
       inkscape:connector-curvature="0" />
    <path
       style="fill:none;fill-rule:evenodd;stroke:#000000;stroke-width:0.00718421px;stroke-linecap:butt;stroke-linejoin:miter;stroke-opacity:1"
       d="m 3.1,3.9964079 2.5,0"
       id="path3347"
       inkscape:connector-curvature="0" />
    <circle
       style="opacity:1"
       id="path3370"
       cx="3.0999999"
       cy="4.6999998"
       r="0.60000002" />
    <circle
       style="opacity:1"
       id="path3370-5"
       cx="5.5999999"
       cy="4.6999998"
       r="0.60000002" />
    <circle
       style="opacity:1;fill:#00ff00"
       id="path3405"
       cx="3.0999999"
       cy="4.6999998"
       r="0.090000004" />
    <circle
       style="opacity:1;fill:#ff0000"
       id="path3405-9"
       cx="5.5999999"
       cy="4.6999998"
       r="0.090000004" />
    <path
       style="fill:none;fill-rule:evenodd;stroke:#000000;stroke-width:0.0071852px;stroke-linecap:butt;stroke-linejoin:miter;stroke-opacity:1"
       d="m 3.1,2.8034074 2.5,0"
       id="path3347-8"
       inkscape:connector-curvature="0" />
    <path
       style="fill:none;fill-rule:evenodd;stroke:#000000;stroke-width:0.0071852px;stroke-linecap:butt;stroke-linejoin:miter;stroke-opacity:1"
       d="m 3.1,4.1024074 2.5,0"
       id="path3347-2-7"
       inkscape:connector-curvature="0" />
    <circle
       style="opacity:1"
       id="path3370-6"
       cx="3.0999999"
       cy="3.4000001"
       r="0.60000002" />
    <circle
       style="opacity:1"
       id="path3370-5-5"
       cx="5.5999999"
       cy="3.4000001"
       r="0.60000002" />
    <circle
       style="opacity:1;fill:#00ff00"
       id="path3405-98"
       cx="3.0999999"
       cy="3.4000001"
       r="0.090000004" />
    <circle
       style="opacity:1;fill:#ff0000"
       id="path3405-9-6"
       cx="5.5999999"
       cy="3.4000001"
       r="0.090000004" />
    <path
       style="opacity:1;fill:#000000"
       d="M 333 531 A 58.499998 62.999999 0 0 0 362.25 585.56055 A 58.499998 62.999999 0 0 0 420.75 585.56055 A 58.499998 62.999999 0 0 0 450 531 L 449.36914 531 A 57.870001 62.369996 0 0 1 420.43555 585.01367 A 57.870001 62.369996 0 0 1 362.56445 585.01367 A 57.870001 62.369996 0 0 1 333.63086 531 L 333 531 z "
       transform="scale(0.01111111,0.01111111)"
       id="path3470" />
    <circle
       id="path3368"
       cx="4.3499999"
       cy="6.0900002"
       style="opacity:1"
       r="0.40000001" />
    <path
       style="fill:none;fill-rule:evenodd;stroke:#000000;stroke-width:0.0071852px;stroke-linecap:butt;stroke-linejoin:miter;stroke-opacity:1"
       d="m 3.1,5.2963649 2.5,0"
       id="path3347-2"
       inkscape:connector-curvature="0" />
    <circle
       style="opacity:1;fill:#00ffff"
       id="path3524"
       cx="4.3499999"
       cy="-6.0900002"
       transform="scale(1,-1)"
       r="0.050000001" />
    <path
       style="fill:none;fill-rule:evenodd;stroke:#000000;stroke-width:0.01111111px;stroke-linecap:butt;stroke-linejoin:miter;stroke-opacity:1"
       d="m 3.1055556,3.9999996 0,0.1111111"
       id="path3545"
       inkscape:connector-curvature="0" />
    <path
       style="fill:none;fill-rule:evenodd;stroke:#000000;stroke-width:0.01111111px;stroke-linecap:butt;stroke-linejoin:miter;stroke-opacity:1"
       d="m 5.5955556,4.1111107 0,-0.1111112"
       id="path3547"
       inkscape:connector-curvature="0" />
    <path
       style="fill:none;fill-rule:evenodd;stroke:#000000;stroke-width:0.01054093px;stroke-linecap:butt;stroke-linejoin:miter;stroke-opacity:1"
       d="m 3.4382705,5.2999984 0,0.1"
       id="path3545-2"
       inkscape:connector-curvature="0" />
    <path
       style="fill:none;fill-rule:evenodd;stroke:#000000;stroke-width:0.01054093px;stroke-linecap:butt;stroke-linejoin:miter;stroke-opacity:1"
       d="m 5.2622705,5.2999984 0,0.1"
       id="path3545-2-7"
       inkscape:connector-curvature="0" />
    <circle
       id="path3368-4"
       cx="4.3499999"
       cy="3.4000001"
       style="opacity:1"
       r="0.40000001" />
    <circle
       style="opacity:1;fill:#00ffff"
       id="path3524-0"
       cx="4.3499999"
       cy="-3.4000001"
       transform="scale(1,-1)"
       r="0.050000001" />
    <text
       xml:space="preserve"
       style="font-style:normal;font-variant:normal;font-weight:normal;font-stretch:normal;font-size:0.11111111px;line-height:125%;font-family:sans-serif;-inkscape-font-specification:'sans-serif, Normal';text-align:center;letter-spacing:0px;word-spacing:0px;writing-mode:lr-tb;text-anchor:middle;fill:#ffffff;fill-opacity:1;stroke:none;stroke-width:1px;stroke-linecap:butt;stroke-linejoin:miter;stroke-opacity:1"
       x="4.3442802"
       y="3.2580733"
       id="text3388"
       sodipodi:linespacing="125%"><tspan
         sodipodi:role="line"
         id="tspan3390"
         x="4.3442802"
         y="3.2580733"
         style="font-style:normal;font-variant:normal;font-weight:normal;font-stretch:normal;font-size:0.11111111px;line-height:125%;font-family:sans-serif;-inkscape-font-specification:'sans-serif, Normal';text-align:center;writing-mode:lr-tb;text-anchor:middle;fill:#ffffff">Snap</tspan><tspan
         sodipodi:role="line"
         x="4.3442802"
         y="3.3969622"
         style="font-style:normal;font-variant:normal;font-weight:normal;font-stretch:normal;font-size:0.11111111px;line-height:125%;font-family:sans-serif;-inkscape-font-specification:'sans-serif, Normal';text-align:center;writing-mode:lr-tb;text-anchor:middle;fill:#ffffff"
         id="tspan3392" /><tspan
         sodipodi:role="line"
         x="4.3442802"
         y="3.535851"
         style="font-style:normal;font-variant:normal;font-weight:normal;font-stretch:normal;font-size:0.11111111px;line-height:125%;font-family:sans-serif;-inkscape-font-specification:'sans-serif, Normal';text-align:center;writing-mode:lr-tb;text-anchor:middle;fill:#ffffff"
         id="tspan3394">Rivet</tspan><tspan
         sodipodi:role="line"
         x="4.3442802"
         y="3.6747401"
         style="font-style:normal;font-variant:normal;font-weight:normal;font-stretch:normal;font-size:0.11111111px;line-height:125%;font-family:sans-serif;-inkscape-font-specification:'sans-serif, Normal';text-align:center;writing-mode:lr-tb;text-anchor:middle;fill:#ffffff"
         id="tspan3564">back</tspan></text>
    <text
       xml:space="preserve"
       style="font-style:normal;font-variant:normal;font-weight:normal;font-stretch:normal;font-size:0.11111111px;line-height:125%;font-family:sans-serif;-inkscape-font-specification:'sans-serif, Normal';text-align:center;letter-spacing:0px;word-spacing:0px;writing-mode:lr-tb;text-anchor:middle;fill:#ffffff;fill-opacity:1;stroke:none;stroke-width:1px;stroke-linecap:butt;stroke-linejoin:miter;stroke-opacity:1"
       x="4.3520212"
       y="5.9699807"
       id="text3388-2"
       sodipodi:linespacing="125%"><tspan
         sodipodi:role="line"
         id="tspan3390-7"
         x="4.3520212"
         y="5.9699807"
         style="font-style:normal;font-variant:normal;font-weight:normal;font-stretch:normal;font-size:0.11111111px;line-height:125%;font-family:sans-serif;-inkscape-font-specification:'sans-serif, Normal';text-align:center;writing-mode:lr-tb;text-anchor:middle;fill:#ffffff">Snap</tspan><tspan
         sodipodi:role="line"
         x="4.3520212"
         y="6.1088696"
         style="font-style:normal;font-variant:normal;font-weight:normal;font-stretch:normal;font-size:0.11111111px;line-height:125%;font-family:sans-serif;-inkscape-font-specification:'sans-serif, Normal';text-align:center;writing-mode:lr-tb;text-anchor:middle;fill:#ffffff"
         id="tspan3392-1" /><tspan
         sodipodi:role="line"
         x="4.3520212"
         y="6.2477584"
         style="font-style:normal;font-variant:normal;font-weight:normal;font-stretch:normal;font-size:0.11111111px;line-height:125%;font-family:sans-serif;-inkscape-font-specification:'sans-serif, Normal';text-align:center;writing-mode:lr-tb;text-anchor:middle;fill:#ffffff"
         id="tspan3394-7">Rivet</tspan><tspan
         sodipodi:role="line"
         x="4.3520212"
         y="6.3866472"
         style="font-style:normal;font-variant:normal;font-weight:normal;font-stretch:normal;font-size:0.11111111px;line-height:125%;font-family:sans-serif;-inkscape-font-specification:'sans-serif, Normal';text-align:center;writing-mode:lr-tb;text-anchor:middle;fill:#ffffff"
         id="tspan3566">Top</tspan></text>
    <text
       xml:space="preserve"
       style="font-style:normal;font-variant:normal;font-weight:normal;font-stretch:normal;font-size:0.16666667px;line-height:125%;font-family:sans-serif;-inkscape-font-specification:'sans-serif, Normal';text-align:center;letter-spacing:0px;word-spacing:0px;writing-mode:lr-tb;text-anchor:middle;fill:#000000;fill-opacity:1;stroke:none;stroke-width:1px;stroke-linecap:butt;stroke-linejoin:miter;stroke-opacity:1"
       x="3.0865035"
       y="3.2288623"
       id="text3420"
       sodipodi:linespacing="125%"><tspan
         sodipodi:role="line"
         id="tspan3422"
         x="3.0865035"
         y="3.2288623"
         style="font-style:normal;font-variant:normal;font-weight:normal;font-stretch:normal;font-size:0.16666667px;line-height:125%;font-family:sans-serif;-inkscape-font-specification:'sans-serif, Normal';text-align:center;writing-mode:lr-tb;text-anchor:middle;fill:#ffffff">Chicago</tspan><tspan
         sodipodi:role="line"
         x="3.0865035"
         y="3.4371955"
         id="tspan3424"
         style="font-style:normal;font-variant:normal;font-weight:normal;font-stretch:normal;font-size:0.16666667px;line-height:125%;font-family:sans-serif;-inkscape-font-specification:'sans-serif, Normal';text-align:center;writing-mode:lr-tb;text-anchor:middle;fill:#ffffff" /><tspan
         sodipodi:role="line"
         x="3.0865035"
         y="3.645529"
         id="tspan3426"
         style="font-style:normal;font-variant:normal;font-weight:normal;font-stretch:normal;font-size:0.16666667px;line-height:125%;font-family:sans-serif;-inkscape-font-specification:'sans-serif, Normal';text-align:center;writing-mode:lr-tb;text-anchor:middle;fill:#ffffff">Screw 1</tspan></text>
    <text
       xml:space="preserve"
       style="font-style:normal;font-variant:normal;font-weight:normal;font-stretch:normal;font-size:0.16666667px;line-height:125%;font-family:sans-serif;-inkscape-font-specification:'sans-serif, Normal';text-align:center;letter-spacing:0px;word-spacing:0px;writing-mode:lr-tb;text-anchor:middle;fill:#000000;fill-opacity:1;stroke:none;stroke-width:1px;stroke-linecap:butt;stroke-linejoin:miter;stroke-opacity:1"
       x="5.6061454"
       y="3.2367191"
       id="text3420-6"
       sodipodi:linespacing="125%"><tspan
         sodipodi:role="line"
         id="tspan3422-8"
         x="5.6061454"
         y="3.2367191"
         style="font-style:normal;font-variant:normal;font-weight:normal;font-stretch:normal;font-size:0.16666667px;line-height:125%;font-family:sans-serif;-inkscape-font-specification:'sans-serif, Normal';text-align:center;writing-mode:lr-tb;text-anchor:middle;fill:#ffffff">Chicago</tspan><tspan
         sodipodi:role="line"
         x="5.6061454"
         y="3.4450524"
         id="tspan3424-0"
         style="font-style:normal;font-variant:normal;font-weight:normal;font-stretch:normal;font-size:0.16666667px;line-height:125%;font-family:sans-serif;-inkscape-font-specification:'sans-serif, Normal';text-align:center;writing-mode:lr-tb;text-anchor:middle;fill:#ffffff" /><tspan
         sodipodi:role="line"
         x="5.6061454"
         y="3.6533859"
         id="tspan3426-8"
         style="font-style:normal;font-variant:normal;font-weight:normal;font-stretch:normal;font-size:0.16666667px;line-height:125%;font-family:sans-serif;-inkscape-font-specification:'sans-serif, Normal';text-align:center;writing-mode:lr-tb;text-anchor:middle;fill:#ffffff">Screw 2</tspan></text>
    <text
       xml:space="preserve"
       style="font-style:normal;font-variant:normal;font-weight:normal;font-stretch:normal;font-size:0.16666667px;line-height:125%;font-family:sans-serif;-inkscape-font-specification:'sans-serif, Normal';text-align:center;letter-spacing:0px;word-spacing:0px;writing-mode:lr-tb;text-anchor:middle;fill:#000000;fill-opacity:1;stroke:none;stroke-width:1px;stroke-linecap:butt;stroke-linejoin:miter;stroke-opacity:1"
       x="3.102217"
       y="4.5464821"
       id="text3420-0"
       sodipodi:linespacing="125%"><tspan
         sodipodi:role="line"
         id="tspan3422-7"
         x="3.102217"
         y="4.5464821"
         style="font-style:normal;font-variant:normal;font-weight:normal;font-stretch:normal;font-size:0.16666667px;line-height:125%;font-family:sans-serif;-inkscape-font-specification:'sans-serif, Normal';text-align:center;writing-mode:lr-tb;text-anchor:middle;fill:#ffffff">Chicago</tspan><tspan
         sodipodi:role="line"
         x="3.102217"
         y="4.7548156"
         id="tspan3424-6"
         style="font-style:normal;font-variant:normal;font-weight:normal;font-stretch:normal;font-size:0.16666667px;line-height:125%;font-family:sans-serif;-inkscape-font-specification:'sans-serif, Normal';text-align:center;writing-mode:lr-tb;text-anchor:middle;fill:#ffffff" /><tspan
         sodipodi:role="line"
         x="3.102217"
         y="4.9631486"
         id="tspan3426-9"
         style="font-style:normal;font-variant:normal;font-weight:normal;font-stretch:normal;font-size:0.16666667px;line-height:125%;font-family:sans-serif;-inkscape-font-specification:'sans-serif, Normal';text-align:center;writing-mode:lr-tb;text-anchor:middle;fill:#ffffff">Screw 1</tspan></text>
    <text
       xml:space="preserve"
       style="font-style:normal;font-variant:normal;font-weight:normal;font-stretch:normal;font-size:0.16666667px;line-height:125%;font-family:sans-serif;-inkscape-font-specification:'sans-serif, Normal';text-align:center;letter-spacing:0px;word-spacing:0px;writing-mode:lr-tb;text-anchor:middle;fill:#000000;fill-opacity:1;stroke:none;stroke-width:1px;stroke-linecap:butt;stroke-linejoin:miter;stroke-opacity:1"
       x="5.5943604"
       y="4.5543389"
       id="text3420-4"
       sodipodi:linespacing="125%"><tspan
         sodipodi:role="line"
         id="tspan3422-6"
         x="5.5943604"
         y="4.5543389"
         style="font-style:normal;font-variant:normal;font-weight:normal;font-stretch:normal;font-size:0.16666667px;line-height:125%;font-family:sans-serif;-inkscape-font-specification:'sans-serif, Normal';text-align:center;writing-mode:lr-tb;text-anchor:middle;fill:#ffffff">Chicago</tspan><tspan
         sodipodi:role="line"
         x="5.5943604"
         y="4.7626724"
         id="tspan3424-8"
         style="font-style:normal;font-variant:normal;font-weight:normal;font-stretch:normal;font-size:0.16666667px;line-height:125%;font-family:sans-serif;-inkscape-font-specification:'sans-serif, Normal';text-align:center;writing-mode:lr-tb;text-anchor:middle;fill:#ffffff" /><tspan
         sodipodi:role="line"
         x="5.5943604"
         y="4.9710054"
         id="tspan3426-5"
         style="font-style:normal;font-variant:normal;font-weight:normal;font-stretch:normal;font-size:0.16666667px;line-height:125%;font-family:sans-serif;-inkscape-font-specification:'sans-serif, Normal';text-align:center;writing-mode:lr-tb;text-anchor:middle;fill:#ffffff">Screw 2</tspan></text>
    <circle
       style="opacity:1;fill:none"
       id="path3370-50"
       cx="3.1138887"
       cy="5.9000001"
       r="0.60000002" />
    <path
       style="fill:#000000"
       d="M 279 476.36914 L 279 477 A 54.000002 54.000002 0 0 1 333 531 L 333.63086 531 A 54.629999 54.629999 0 0 0 279 476.36914 z "
       id="path3508"
       transform="scale(0.01111111,0.01111111)" />
    <path
       style="fill:#000000"
       d="M 504 476.36914 A 54.629999 54.629999 0 0 0 449.36914 531 L 450 531 A 54.000002 54.000002 0 0 1 504 477 L 504 476.36914 z "
       transform="scale(0.01111111,0.01111111)"
       id="path3508-5" />
    <path
       style="fill:none;fill-rule:evenodd;stroke:#000000;stroke-width:0.00655389px;stroke-linecap:butt;stroke-linejoin:miter;stroke-opacity:1"
       d="m 3.55,5.4967229 1.6,2e-7"
       id="path4394-1"
       inkscape:connector-curvature="0" />
    <path
       style="fill:#808080;fill-opacity:1"
       d="m 387.1577,593.15108 c -7.05398,-0.59538 -13.84502,-2.5169 -20.15254,-5.70215 -15.41577,-7.78485 -26.89246,-22.50736 -31.31993,-40.17778 -1.31474,-5.24725 -1.8569,-9.53658 -2.00403,-15.85512 -0.12671,-5.44122 -0.40135,-8.04337 -1.28272,-12.1534 -1.83272,-8.54642 -6.14543,-17.23111 -11.77417,-23.71017 l -0.47993,-0.55243 71.34453,0 71.34452,0 -0.46406,0.55243 c -7.64668,9.10286 -11.97461,19.65732 -12.89387,31.44416 -0.0474,0.60767 -0.10905,2.29809 -0.13701,3.7565 -0.028,1.45841 -0.0899,3.32782 -0.13753,4.15425 -1.09179,18.9249 -10.16289,36.32154 -24.61079,47.1988 -4.52326,3.40539 -9.92168,6.29857 -15.29119,8.19502 -4.32355,1.52703 -9.24216,2.53806 -14.09794,2.89785 -1.6349,0.12113 -6.37476,0.0929 -8.04334,-0.048 z m 6.27557,-9.09295 c 4.94601,-0.15685 10.51341,-1.70903 15.15861,-4.22621 7.22329,-3.91422 12.89253,-10.13057 16.07732,-17.62885 3.70506,-8.72319 3.81603,-18.59339 0.30889,-27.47247 -0.47142,-1.19353 -1.68209,-3.67087 -2.35106,-4.81091 -5.33855,-9.09778 -14.31434,-15.38005 -24.68595,-17.27801 -2.3113,-0.42296 -3.64253,-0.53131 -6.49654,-0.52875 -2.74762,0.002 -3.71922,0.079 -6.12893,0.48287 -4.99843,0.83772 -10.23659,2.9943 -14.42137,5.93736 -3.74252,2.63204 -6.92721,5.89409 -9.44294,9.67234 -5.33956,8.01919 -7.21915,17.98876 -5.18139,27.48257 1.56898,7.30981 5.51052,14.15972 10.9644,19.05482 5.72394,5.13749 12.4271,8.20493 19.96759,9.1374 1.1099,0.13725 3.91819,0.28708 4.552,0.24286 0.17014,-0.0119 0.92586,-0.0411 1.67937,-0.065 z"
       id="path8419"
       inkscape:connector-curvature="0"
       transform="scale(0.01111111,0.01111111)" />
    <path
       style="fill:#808080;fill-opacity:1"
       d="m 291.16032,475.72105 c 8.09924,-1.87575 16.21189,-5.9095 22.50565,-11.19019 17.14893,-14.38859 23.65637,-37.54569 16.55897,-58.92611 -5.90136,-17.77747 -21.30933,-31.5111 -39.82681,-35.49897 -2.22798,-0.4798 -1.61837,-0.48273 101.00849,-0.48388 l 103.25,-0.001 -2.625,0.60334 c -19.90124,4.57423 -35.71526,20.05858 -40.50093,39.65662 -2.06617,8.46131 -2.09749,17.69501 -0.088,25.93502 4.22644,17.33043 16.99873,31.69132 33.70019,37.89177 2.21215,0.82127 6.94211,2.16478 8.63871,2.45377 0.34375,0.0586 -45.66875,0.11392 -102.25,0.12304 l -102.875,0.0166 2.5037,-0.57985 0,10e-6 z"
       id="path8429"
       inkscape:connector-curvature="0"
       transform="scale(0.01111111,0.01111111)" />
    <path
       style="fill:#808080;fill-opacity:1"
       d="m 291.16032,358.72105 c 8.09924,-1.87575 16.21189,-5.9095 22.50565,-11.19019 17.14893,-14.38859 23.65637,-37.54569 16.55897,-58.92611 -1.97793,-5.95838 -5.6174,-12.40188 -9.90711,-17.54003 -7.01519,-8.4027 -17.02768,-14.67942 -27.87967,-17.47745 l -2.78154,-0.71718 101.875,-0.006 101.875,-0.006 -2.75,0.71417 c -13.88905,3.60694 -25.55541,12.27067 -33.00871,24.51309 -7.23637,11.88612 -9.54457,27.03681 -6.20519,40.72991 4.22644,17.33043 16.99873,31.69132 33.70019,37.89177 2.21215,0.82127 6.94211,2.16478 8.63871,2.45377 0.34375,0.0586 -45.66875,0.11392 -102.25,0.12304 l -102.875,0.0166 2.5037,-0.57984 z m 107.67105,-17.37252 c 14.19932,-3.03207 24.97412,-13.86717 28.10544,-28.26271 0.6654,-3.05903 0.66395,-10.95038 -0.003,-14.125 -4.27239,-20.34848 -24.07889,-32.90817 -44.11401,-27.97357 -6.766,1.66645 -12.53555,5.03069 -17.45833,10.18001 -6.47821,6.77633 -9.88388,15.31939 -9.88388,24.79356 0,8.96906 3.02152,17.06927 8.89321,23.84126 5.77931,6.66545 13.6561,10.77062 23.28542,12.13572 1.93406,0.27419 8.83545,-0.0897 11.17475,-0.58927 z"
       id="path8431"
       inkscape:connector-curvature="0"
       transform="scale(0.01111111,0.01111111)" />
    <path
       style="fill:#f2f2f2;fill-opacity:1"
       d="m 280.03162,364.46082 0,-4.375 111.5,0 111.5,0 0,4.375 0,4.375 -111.5,0 -111.5,0 0,-4.375 z"
       id="path8433"
       inkscape:connector-curvature="0"
       transform="scale(0.01111111,0.01111111)" />
    <path
       style="fill:#f2f2f2;fill-opacity:1"
       d="m 310.03162,481.21082 0,-4.125 81.5,0 81.5,0 0,4.125 0,4.125 -81.5,0 -81.5,0 0,-4.125 z"
       id="path8435"
       inkscape:connector-curvature="0"
       transform="scale(0.01111111,0.01111111)" />
    <path
       style="fill:#f2f2f2;fill-opacity:1"
       d="m 317.5261,492.19184 c -1.89808,-1.92002 -4.23847,-3.95328 -6.37178,-5.5356 l -0.7477,-0.55458 81.125,0.005 c 76.382,0.005 81.08916,0.03 80.51192,0.42958 -1.59764,1.10593 -4.81092,3.84753 -6.70772,5.72309 l -2.0998,2.0763 -71.79522,0 -71.79522,0 -2.11948,-2.14398 z"
       id="path8437"
       inkscape:connector-curvature="0"
       transform="scale(0.01111111,0.01111111)" />
    <path
       style="fill:#f2f2f2;fill-opacity:1"
       d="m 307.53162,484.29719 c -1.76441,-1.17587 -6.62914,-3.55563 -9.375,-4.58612 -1.375,-0.51603 -3.9625,-1.31297 -5.75,-1.77099 l -3.25,-0.83277 9.8125,-0.0107 9.8125,-0.0107 0,4 c 0,2.2 -0.0281,3.99125 -0.0625,3.98056 -0.0344,-0.0107 -0.56875,-0.35683 -1.1875,-0.76919 z"
       id="path8439"
       inkscape:connector-curvature="0"
       transform="scale(0.01111111,0.01111111)" />
    <path
       style="fill:#f2f2f2;fill-opacity:1"
       d="m 474.28162,480.96082 0,-3.875 9.8125,0.0226 9.8125,0.0226 -2.03434,0.46935 c -4.71404,1.0876 -10.16294,3.17302 -14.40823,5.51435 -1.26908,0.69992 -2.4143,1.3735 -2.54493,1.49685 -0.55188,0.52116 -0.6375,0.0309 -0.6375,-3.65072 z"
       id="path8441"
       inkscape:connector-curvature="0"
       transform="scale(0.01111111,0.01111111)"
       inkscape:export-xdpi="270.26999"
       inkscape:export-ydpi="270.26999" />
  </g>
</svg>
